<mxfile host="app.diagrams.net" modified="2023-10-15T21:20:07.581Z" agent="Mozilla/5.0 (Windows NT 10.0; Win64; x64) AppleWebKit/537.36 (KHTML, like Gecko) Chrome/118.0.0.0 Safari/537.36" etag="tok3pWirKHvUoH36xv7x" version="22.0.4" type="device">
  <diagram id="R2lEEEUBdFMjLlhIrx00" name="Page-1">
    <mxGraphModel dx="3000" dy="1549" grid="0" gridSize="10" guides="1" tooltips="1" connect="1" arrows="1" fold="1" page="1" pageScale="1" pageWidth="850" pageHeight="1100" math="0" shadow="0" extFonts="Permanent Marker^https://fonts.googleapis.com/css?family=Permanent+Marker">
      <root>
        <mxCell id="0" />
        <mxCell id="1" parent="0" />
        <mxCell id="2nq4a87pyCxHnOQXuyUR-1" value="Task" style="rounded=0;whiteSpace=wrap;html=1;fontSize=16;" vertex="1" parent="1">
          <mxGeometry x="1255" y="102" width="120" height="60" as="geometry" />
        </mxCell>
        <mxCell id="2nq4a87pyCxHnOQXuyUR-2" value="Holidays" style="rounded=0;whiteSpace=wrap;html=1;fontSize=16;" vertex="1" parent="1">
          <mxGeometry x="1664" y="102" width="120" height="60" as="geometry" />
        </mxCell>
        <mxCell id="2nq4a87pyCxHnOQXuyUR-3" value="User" style="rounded=0;whiteSpace=wrap;html=1;fontSize=16;" vertex="1" parent="1">
          <mxGeometry x="1186" y="244" width="120" height="60" as="geometry" />
        </mxCell>
        <mxCell id="2nq4a87pyCxHnOQXuyUR-4" value="TaskType" style="rounded=0;whiteSpace=wrap;html=1;fontSize=16;" vertex="1" parent="1">
          <mxGeometry x="1457" y="102" width="120" height="60" as="geometry" />
        </mxCell>
        <mxCell id="2nq4a87pyCxHnOQXuyUR-5" value="" style="edgeStyle=orthogonalEdgeStyle;endArrow=ERzeroToMany;startArrow=ERzeroToOne;endFill=1;startFill=0;exitX=0.5;exitY=0;exitDx=0;exitDy=0;entryX=0.25;entryY=1;entryDx=0;entryDy=0;rounded=0;strokeWidth=1;sourcePerimeterSpacing=6;endSize=8;startSize=8;" edge="1" parent="1" source="2nq4a87pyCxHnOQXuyUR-3" target="2nq4a87pyCxHnOQXuyUR-1">
          <mxGeometry width="100" height="100" relative="1" as="geometry">
            <mxPoint x="1175" y="346" as="sourcePoint" />
            <mxPoint x="1175" y="536" as="targetPoint" />
          </mxGeometry>
        </mxCell>
        <mxCell id="2nq4a87pyCxHnOQXuyUR-6" value="" style="edgeStyle=orthogonalEdgeStyle;endArrow=ERzeroToMany;startArrow=ERzeroToOne;endFill=1;startFill=0;exitX=0;exitY=0.5;exitDx=0;exitDy=0;entryX=1;entryY=0.5;entryDx=0;entryDy=0;rounded=0;strokeWidth=1;sourcePerimeterSpacing=6;endSize=8;startSize=8;" edge="1" parent="1" source="2nq4a87pyCxHnOQXuyUR-4" target="2nq4a87pyCxHnOQXuyUR-1">
          <mxGeometry width="100" height="100" relative="1" as="geometry">
            <mxPoint x="1365" y="219" as="sourcePoint" />
            <mxPoint x="1434" y="137" as="targetPoint" />
          </mxGeometry>
        </mxCell>
        <mxCell id="2nq4a87pyCxHnOQXuyUR-7" value="Project" style="rounded=0;whiteSpace=wrap;html=1;fontSize=16;" vertex="1" parent="1">
          <mxGeometry x="1021" y="149" width="120" height="60" as="geometry" />
        </mxCell>
        <mxCell id="2nq4a87pyCxHnOQXuyUR-8" value="" style="edgeStyle=orthogonalEdgeStyle;endArrow=ERzeroToMany;startArrow=ERzeroToOne;endFill=1;startFill=0;exitX=1;exitY=0.25;exitDx=0;exitDy=0;entryX=0;entryY=0.5;entryDx=0;entryDy=0;rounded=0;strokeWidth=1;sourcePerimeterSpacing=6;startSize=8;endSize=8;" edge="1" parent="1" source="2nq4a87pyCxHnOQXuyUR-7" target="2nq4a87pyCxHnOQXuyUR-1">
          <mxGeometry width="100" height="100" relative="1" as="geometry">
            <mxPoint x="993" y="329" as="sourcePoint" />
            <mxPoint x="1062" y="247" as="targetPoint" />
          </mxGeometry>
        </mxCell>
        <mxCell id="2nq4a87pyCxHnOQXuyUR-9" value="" style="edgeStyle=orthogonalEdgeStyle;endArrow=ERzeroToMany;startArrow=ERmandOne;endFill=1;startFill=0;exitX=0;exitY=0.25;exitDx=0;exitDy=0;entryX=1;entryY=0.75;entryDx=0;entryDy=0;rounded=0;strokeWidth=1;sourcePerimeterSpacing=6;endSize=8;startSize=8;" edge="1" parent="1" source="2nq4a87pyCxHnOQXuyUR-3" target="2nq4a87pyCxHnOQXuyUR-7">
          <mxGeometry width="100" height="100" relative="1" as="geometry">
            <mxPoint x="1043" y="329" as="sourcePoint" />
            <mxPoint x="1112" y="247" as="targetPoint" />
          </mxGeometry>
        </mxCell>
        <mxCell id="2nq4a87pyCxHnOQXuyUR-10" value="Vacation" style="rounded=0;whiteSpace=wrap;html=1;fontSize=16;" vertex="1" parent="1">
          <mxGeometry x="853" y="361" width="120" height="60" as="geometry" />
        </mxCell>
        <mxCell id="2nq4a87pyCxHnOQXuyUR-11" value="" style="edgeStyle=orthogonalEdgeStyle;endArrow=ERzeroToMany;startArrow=ERmandOne;endFill=1;startFill=0;exitX=0;exitY=0.5;exitDx=0;exitDy=0;entryX=0.5;entryY=0;entryDx=0;entryDy=0;rounded=0;strokeWidth=1;sourcePerimeterSpacing=6;endSize=8;startSize=8;" edge="1" parent="1" source="2nq4a87pyCxHnOQXuyUR-3" target="2nq4a87pyCxHnOQXuyUR-10">
          <mxGeometry width="100" height="100" relative="1" as="geometry">
            <mxPoint x="1219" y="474" as="sourcePoint" />
            <mxPoint x="1174" y="409" as="targetPoint" />
          </mxGeometry>
        </mxCell>
        <mxCell id="2nq4a87pyCxHnOQXuyUR-12" value="BusinessTrip" style="rounded=0;whiteSpace=wrap;html=1;fontSize=16;" vertex="1" parent="1">
          <mxGeometry x="1005" y="358" width="120" height="60" as="geometry" />
        </mxCell>
        <mxCell id="2nq4a87pyCxHnOQXuyUR-13" value="" style="edgeStyle=orthogonalEdgeStyle;endArrow=ERzeroToMany;startArrow=ERoneToMany;endFill=1;startFill=0;exitX=0;exitY=0.75;exitDx=0;exitDy=0;entryX=0.25;entryY=0;entryDx=0;entryDy=0;rounded=0;strokeWidth=1;sourcePerimeterSpacing=6;endSize=8;startSize=8;" edge="1" parent="1" source="2nq4a87pyCxHnOQXuyUR-3" target="2nq4a87pyCxHnOQXuyUR-12">
          <mxGeometry width="100" height="100" relative="1" as="geometry">
            <mxPoint x="1512" y="361" as="sourcePoint" />
            <mxPoint x="1375" y="445" as="targetPoint" />
          </mxGeometry>
        </mxCell>
        <mxCell id="2nq4a87pyCxHnOQXuyUR-14" value="Department" style="rounded=0;whiteSpace=wrap;html=1;fontSize=16;" vertex="1" parent="1">
          <mxGeometry x="1157" y="356" width="120" height="60" as="geometry" />
        </mxCell>
        <mxCell id="2nq4a87pyCxHnOQXuyUR-15" value="" style="edgeStyle=orthogonalEdgeStyle;endArrow=ERmandOne;startArrow=ERoneToMany;endFill=0;startFill=0;entryX=0.5;entryY=0;entryDx=0;entryDy=0;rounded=0;strokeWidth=1;sourcePerimeterSpacing=6;endSize=8;startSize=8;exitX=0.25;exitY=1;exitDx=0;exitDy=0;" edge="1" parent="1" source="2nq4a87pyCxHnOQXuyUR-3" target="2nq4a87pyCxHnOQXuyUR-14">
          <mxGeometry width="100" height="100" relative="1" as="geometry">
            <mxPoint x="1229" y="453" as="sourcePoint" />
            <mxPoint x="1228" y="518" as="targetPoint" />
            <Array as="points">
              <mxPoint x="1216" y="356" />
            </Array>
          </mxGeometry>
        </mxCell>
        <mxCell id="2nq4a87pyCxHnOQXuyUR-16" value="Report" style="rounded=0;whiteSpace=wrap;html=1;fontSize=16;" vertex="1" parent="1">
          <mxGeometry x="1436" y="214" width="120" height="60" as="geometry" />
        </mxCell>
        <mxCell id="2nq4a87pyCxHnOQXuyUR-17" value="" style="edgeStyle=orthogonalEdgeStyle;endArrow=ERzeroToMany;startArrow=ERmandOne;endFill=1;startFill=0;exitX=1;exitY=0.25;exitDx=0;exitDy=0;entryX=0;entryY=0.5;entryDx=0;entryDy=0;rounded=0;strokeWidth=1;sourcePerimeterSpacing=6;endSize=8;startSize=8;" edge="1" parent="1" source="2nq4a87pyCxHnOQXuyUR-3" target="2nq4a87pyCxHnOQXuyUR-16">
          <mxGeometry width="100" height="100" relative="1" as="geometry">
            <mxPoint x="1699" y="472" as="sourcePoint" />
            <mxPoint x="1426" y="559" as="targetPoint" />
          </mxGeometry>
        </mxCell>
        <mxCell id="2nq4a87pyCxHnOQXuyUR-18" value="WorkSchedule" style="rounded=0;whiteSpace=wrap;html=1;fontSize=16;" vertex="1" parent="1">
          <mxGeometry x="1300" y="356" width="120" height="60" as="geometry" />
        </mxCell>
        <mxCell id="2nq4a87pyCxHnOQXuyUR-19" value="" style="edgeStyle=orthogonalEdgeStyle;endArrow=ERmandOne;startArrow=ERoneToMany;endFill=0;startFill=0;rounded=0;strokeWidth=1;sourcePerimeterSpacing=6;endSize=8;startSize=8;exitX=0.75;exitY=1;exitDx=0;exitDy=0;entryX=0.25;entryY=0;entryDx=0;entryDy=0;" edge="1" parent="1" source="2nq4a87pyCxHnOQXuyUR-3" target="2nq4a87pyCxHnOQXuyUR-18">
          <mxGeometry width="100" height="100" relative="1" as="geometry">
            <mxPoint x="1471" y="221" as="sourcePoint" />
            <mxPoint x="1463" y="334" as="targetPoint" />
            <Array as="points">
              <mxPoint x="1276" y="346" />
              <mxPoint x="1330" y="346" />
            </Array>
          </mxGeometry>
        </mxCell>
        <mxCell id="2nq4a87pyCxHnOQXuyUR-20" value="ReportItem" style="rounded=0;whiteSpace=wrap;html=1;fontSize=16;" vertex="1" parent="1">
          <mxGeometry x="1610" y="214" width="120" height="60" as="geometry" />
        </mxCell>
        <mxCell id="2nq4a87pyCxHnOQXuyUR-22" value="" style="edgeStyle=orthogonalEdgeStyle;endArrow=ERzeroToOne;startArrow=ERzeroToMany;endFill=0;startFill=0;exitX=0.25;exitY=0;exitDx=0;exitDy=0;entryX=0.75;entryY=1;entryDx=0;entryDy=0;rounded=0;strokeWidth=1;sourcePerimeterSpacing=6;endSize=8;startSize=8;" edge="1" parent="1" source="2nq4a87pyCxHnOQXuyUR-20" target="2nq4a87pyCxHnOQXuyUR-1">
          <mxGeometry width="100" height="100" relative="1" as="geometry">
            <mxPoint x="1527" y="385.17" as="sourcePoint" />
            <mxPoint x="1657" y="386.17" as="targetPoint" />
          </mxGeometry>
        </mxCell>
        <mxCell id="2nq4a87pyCxHnOQXuyUR-23" value="Notification" style="rounded=0;whiteSpace=wrap;html=1;fontSize=16;" vertex="1" parent="1">
          <mxGeometry x="1447" y="358" width="120" height="60" as="geometry" />
        </mxCell>
        <mxCell id="2nq4a87pyCxHnOQXuyUR-24" value="" style="edgeStyle=orthogonalEdgeStyle;endArrow=ERoneToMany;startArrow=ERzeroToMany;endFill=0;startFill=0;exitX=0.25;exitY=0;exitDx=0;exitDy=0;entryX=1;entryY=1;entryDx=0;entryDy=0;rounded=0;strokeWidth=1;sourcePerimeterSpacing=6;endSize=8;startSize=8;" edge="1" parent="1" source="2nq4a87pyCxHnOQXuyUR-23" target="2nq4a87pyCxHnOQXuyUR-3">
          <mxGeometry width="100" height="100" relative="1" as="geometry">
            <mxPoint x="1730" y="521" as="sourcePoint" />
            <mxPoint x="1435" y="453" as="targetPoint" />
          </mxGeometry>
        </mxCell>
        <mxCell id="2nq4a87pyCxHnOQXuyUR-25" value="Position" style="rounded=0;whiteSpace=wrap;html=1;fontSize=16;" vertex="1" parent="1">
          <mxGeometry x="1606" y="356" width="120" height="60" as="geometry" />
        </mxCell>
        <mxCell id="2nq4a87pyCxHnOQXuyUR-26" value="" style="edgeStyle=orthogonalEdgeStyle;endArrow=ERmandOne;startArrow=ERzeroToMany;endFill=0;startFill=0;exitX=1;exitY=0.75;exitDx=0;exitDy=0;entryX=0.25;entryY=0;entryDx=0;entryDy=0;rounded=0;strokeWidth=1;sourcePerimeterSpacing=6;endSize=8;startSize=8;" edge="1" parent="1" source="2nq4a87pyCxHnOQXuyUR-3" target="2nq4a87pyCxHnOQXuyUR-25">
          <mxGeometry width="100" height="100" relative="1" as="geometry">
            <mxPoint x="1598" y="499" as="sourcePoint" />
            <mxPoint x="1427" y="445" as="targetPoint" />
            <Array as="points">
              <mxPoint x="1636" y="289" />
            </Array>
          </mxGeometry>
        </mxCell>
        <mxCell id="2nq4a87pyCxHnOQXuyUR-27" value="ReportItemType" style="rounded=0;whiteSpace=wrap;html=1;fontSize=16;" vertex="1" parent="1">
          <mxGeometry x="1784" y="214" width="120" height="60" as="geometry" />
        </mxCell>
        <mxCell id="2nq4a87pyCxHnOQXuyUR-28" value="" style="edgeStyle=orthogonalEdgeStyle;endArrow=ERmandOne;startArrow=ERzeroToMany;endFill=0;startFill=0;exitX=1;exitY=0.5;exitDx=0;exitDy=0;entryX=0;entryY=0.5;entryDx=0;entryDy=0;rounded=0;strokeWidth=1;sourcePerimeterSpacing=6;endSize=8;startSize=8;" edge="1" parent="1" source="2nq4a87pyCxHnOQXuyUR-20" target="2nq4a87pyCxHnOQXuyUR-27">
          <mxGeometry width="100" height="100" relative="1" as="geometry">
            <mxPoint x="1679" y="328" as="sourcePoint" />
            <mxPoint x="2009" y="395" as="targetPoint" />
            <Array as="points">
              <mxPoint x="1755" y="244" />
              <mxPoint x="1755" y="244" />
            </Array>
          </mxGeometry>
        </mxCell>
        <mxCell id="2nq4a87pyCxHnOQXuyUR-29" value="Task" style="shape=table;startSize=30;container=1;collapsible=1;childLayout=tableLayout;fixedRows=1;rowLines=0;fontStyle=1;align=center;resizeLast=1;fontSize=16;" vertex="1" parent="1">
          <mxGeometry x="1179" y="526" width="250" height="401.6875419616699" as="geometry" />
        </mxCell>
        <mxCell id="2nq4a87pyCxHnOQXuyUR-30" value="" style="shape=partialRectangle;collapsible=0;dropTarget=0;pointerEvents=0;fillColor=none;points=[[0,0.5],[1,0.5]];portConstraint=eastwest;top=0;left=0;right=0;bottom=1;fontSize=16;" vertex="1" parent="2nq4a87pyCxHnOQXuyUR-29">
          <mxGeometry y="30" width="250" height="30" as="geometry" />
        </mxCell>
        <mxCell id="2nq4a87pyCxHnOQXuyUR-31" value="PK" style="shape=partialRectangle;overflow=hidden;connectable=0;fillColor=none;top=0;left=0;bottom=0;right=0;fontStyle=1;fontSize=16;" vertex="1" parent="2nq4a87pyCxHnOQXuyUR-30">
          <mxGeometry width="30" height="30" as="geometry">
            <mxRectangle width="30" height="30" as="alternateBounds" />
          </mxGeometry>
        </mxCell>
        <mxCell id="2nq4a87pyCxHnOQXuyUR-32" value="task_id" style="shape=partialRectangle;overflow=hidden;connectable=0;fillColor=none;top=0;left=0;bottom=0;right=0;align=left;spacingLeft=6;fontStyle=5;fontSize=16;" vertex="1" parent="2nq4a87pyCxHnOQXuyUR-30">
          <mxGeometry x="30" width="220" height="30" as="geometry">
            <mxRectangle width="220" height="30" as="alternateBounds" />
          </mxGeometry>
        </mxCell>
        <mxCell id="2nq4a87pyCxHnOQXuyUR-33" value="" style="shape=partialRectangle;collapsible=0;dropTarget=0;pointerEvents=0;fillColor=none;points=[[0,0.5],[1,0.5]];portConstraint=eastwest;top=0;left=0;right=0;bottom=0;fontSize=16;" vertex="1" parent="2nq4a87pyCxHnOQXuyUR-29">
          <mxGeometry y="60" width="250" height="30" as="geometry" />
        </mxCell>
        <mxCell id="2nq4a87pyCxHnOQXuyUR-34" value="FK" style="shape=partialRectangle;overflow=hidden;connectable=0;fillColor=none;top=0;left=0;bottom=0;right=0;fontSize=16;" vertex="1" parent="2nq4a87pyCxHnOQXuyUR-33">
          <mxGeometry width="30" height="30" as="geometry">
            <mxRectangle width="30" height="30" as="alternateBounds" />
          </mxGeometry>
        </mxCell>
        <mxCell id="2nq4a87pyCxHnOQXuyUR-35" value="project_id" style="shape=partialRectangle;overflow=hidden;connectable=0;fillColor=none;top=0;left=0;bottom=0;right=0;align=left;spacingLeft=6;fontSize=16;" vertex="1" parent="2nq4a87pyCxHnOQXuyUR-33">
          <mxGeometry x="30" width="220" height="30" as="geometry">
            <mxRectangle width="220" height="30" as="alternateBounds" />
          </mxGeometry>
        </mxCell>
        <mxCell id="2nq4a87pyCxHnOQXuyUR-36" value="" style="shape=partialRectangle;collapsible=0;dropTarget=0;pointerEvents=0;fillColor=none;points=[[0,0.5],[1,0.5]];portConstraint=eastwest;top=0;left=0;right=0;bottom=0;fontSize=16;" vertex="1" parent="2nq4a87pyCxHnOQXuyUR-29">
          <mxGeometry y="90" width="250" height="30" as="geometry" />
        </mxCell>
        <mxCell id="2nq4a87pyCxHnOQXuyUR-37" value="FK" style="shape=partialRectangle;overflow=hidden;connectable=0;fillColor=none;top=0;left=0;bottom=0;right=0;fontSize=16;" vertex="1" parent="2nq4a87pyCxHnOQXuyUR-36">
          <mxGeometry width="30" height="30" as="geometry">
            <mxRectangle width="30" height="30" as="alternateBounds" />
          </mxGeometry>
        </mxCell>
        <mxCell id="2nq4a87pyCxHnOQXuyUR-38" value="reporter_id" style="shape=partialRectangle;overflow=hidden;connectable=0;fillColor=none;top=0;left=0;bottom=0;right=0;align=left;spacingLeft=6;fontSize=16;" vertex="1" parent="2nq4a87pyCxHnOQXuyUR-36">
          <mxGeometry x="30" width="220" height="30" as="geometry">
            <mxRectangle width="220" height="30" as="alternateBounds" />
          </mxGeometry>
        </mxCell>
        <mxCell id="2nq4a87pyCxHnOQXuyUR-63" style="shape=partialRectangle;collapsible=0;dropTarget=0;pointerEvents=0;fillColor=none;points=[[0,0.5],[1,0.5]];portConstraint=eastwest;top=0;left=0;right=0;bottom=0;fontSize=16;" vertex="1" parent="2nq4a87pyCxHnOQXuyUR-29">
          <mxGeometry y="120" width="250" height="30" as="geometry" />
        </mxCell>
        <mxCell id="2nq4a87pyCxHnOQXuyUR-64" value="FK" style="shape=partialRectangle;overflow=hidden;connectable=0;fillColor=none;top=0;left=0;bottom=0;right=0;fontSize=16;" vertex="1" parent="2nq4a87pyCxHnOQXuyUR-63">
          <mxGeometry width="30" height="30" as="geometry">
            <mxRectangle width="30" height="30" as="alternateBounds" />
          </mxGeometry>
        </mxCell>
        <mxCell id="2nq4a87pyCxHnOQXuyUR-65" value="assignee_id" style="shape=partialRectangle;overflow=hidden;connectable=0;fillColor=none;top=0;left=0;bottom=0;right=0;align=left;spacingLeft=6;fontSize=16;" vertex="1" parent="2nq4a87pyCxHnOQXuyUR-63">
          <mxGeometry x="30" width="220" height="30" as="geometry">
            <mxRectangle width="220" height="30" as="alternateBounds" />
          </mxGeometry>
        </mxCell>
        <mxCell id="2nq4a87pyCxHnOQXuyUR-60" style="shape=partialRectangle;collapsible=0;dropTarget=0;pointerEvents=0;fillColor=none;points=[[0,0.5],[1,0.5]];portConstraint=eastwest;top=0;left=0;right=0;bottom=0;fontSize=16;" vertex="1" parent="2nq4a87pyCxHnOQXuyUR-29">
          <mxGeometry y="150" width="250" height="32" as="geometry" />
        </mxCell>
        <mxCell id="2nq4a87pyCxHnOQXuyUR-61" value="FK" style="shape=partialRectangle;overflow=hidden;connectable=0;fillColor=none;top=0;left=0;bottom=0;right=0;fontSize=16;" vertex="1" parent="2nq4a87pyCxHnOQXuyUR-60">
          <mxGeometry width="30" height="32" as="geometry">
            <mxRectangle width="30" height="32" as="alternateBounds" />
          </mxGeometry>
        </mxCell>
        <mxCell id="2nq4a87pyCxHnOQXuyUR-62" value="task_type_id" style="shape=partialRectangle;overflow=hidden;connectable=0;fillColor=none;top=0;left=0;bottom=0;right=0;align=left;spacingLeft=6;fontSize=16;" vertex="1" parent="2nq4a87pyCxHnOQXuyUR-60">
          <mxGeometry x="30" width="220" height="32" as="geometry">
            <mxRectangle width="220" height="32" as="alternateBounds" />
          </mxGeometry>
        </mxCell>
        <mxCell id="2nq4a87pyCxHnOQXuyUR-57" style="shape=partialRectangle;collapsible=0;dropTarget=0;pointerEvents=0;fillColor=none;points=[[0,0.5],[1,0.5]];portConstraint=eastwest;top=0;left=0;right=0;bottom=0;fontSize=16;" vertex="1" parent="2nq4a87pyCxHnOQXuyUR-29">
          <mxGeometry y="182" width="250" height="30" as="geometry" />
        </mxCell>
        <mxCell id="2nq4a87pyCxHnOQXuyUR-58" style="shape=partialRectangle;overflow=hidden;connectable=0;fillColor=none;top=0;left=0;bottom=0;right=0;fontSize=16;" vertex="1" parent="2nq4a87pyCxHnOQXuyUR-57">
          <mxGeometry width="30" height="30" as="geometry">
            <mxRectangle width="30" height="30" as="alternateBounds" />
          </mxGeometry>
        </mxCell>
        <mxCell id="2nq4a87pyCxHnOQXuyUR-59" value="name" style="shape=partialRectangle;overflow=hidden;connectable=0;fillColor=none;top=0;left=0;bottom=0;right=0;align=left;spacingLeft=6;fontSize=16;" vertex="1" parent="2nq4a87pyCxHnOQXuyUR-57">
          <mxGeometry x="30" width="220" height="30" as="geometry">
            <mxRectangle width="220" height="30" as="alternateBounds" />
          </mxGeometry>
        </mxCell>
        <mxCell id="2nq4a87pyCxHnOQXuyUR-54" style="shape=partialRectangle;collapsible=0;dropTarget=0;pointerEvents=0;fillColor=none;points=[[0,0.5],[1,0.5]];portConstraint=eastwest;top=0;left=0;right=0;bottom=0;fontSize=16;" vertex="1" parent="2nq4a87pyCxHnOQXuyUR-29">
          <mxGeometry y="212" width="250" height="30" as="geometry" />
        </mxCell>
        <mxCell id="2nq4a87pyCxHnOQXuyUR-55" style="shape=partialRectangle;overflow=hidden;connectable=0;fillColor=none;top=0;left=0;bottom=0;right=0;fontSize=16;" vertex="1" parent="2nq4a87pyCxHnOQXuyUR-54">
          <mxGeometry width="30" height="30" as="geometry">
            <mxRectangle width="30" height="30" as="alternateBounds" />
          </mxGeometry>
        </mxCell>
        <mxCell id="2nq4a87pyCxHnOQXuyUR-56" value="description" style="shape=partialRectangle;overflow=hidden;connectable=0;fillColor=none;top=0;left=0;bottom=0;right=0;align=left;spacingLeft=6;fontSize=16;" vertex="1" parent="2nq4a87pyCxHnOQXuyUR-54">
          <mxGeometry x="30" width="220" height="30" as="geometry">
            <mxRectangle width="220" height="30" as="alternateBounds" />
          </mxGeometry>
        </mxCell>
        <mxCell id="2nq4a87pyCxHnOQXuyUR-51" style="shape=partialRectangle;collapsible=0;dropTarget=0;pointerEvents=0;fillColor=none;points=[[0,0.5],[1,0.5]];portConstraint=eastwest;top=0;left=0;right=0;bottom=0;fontSize=16;" vertex="1" parent="2nq4a87pyCxHnOQXuyUR-29">
          <mxGeometry y="242" width="250" height="30" as="geometry" />
        </mxCell>
        <mxCell id="2nq4a87pyCxHnOQXuyUR-52" style="shape=partialRectangle;overflow=hidden;connectable=0;fillColor=none;top=0;left=0;bottom=0;right=0;fontSize=16;" vertex="1" parent="2nq4a87pyCxHnOQXuyUR-51">
          <mxGeometry width="30" height="30" as="geometry">
            <mxRectangle width="30" height="30" as="alternateBounds" />
          </mxGeometry>
        </mxCell>
        <mxCell id="2nq4a87pyCxHnOQXuyUR-53" value="status" style="shape=partialRectangle;overflow=hidden;connectable=0;fillColor=none;top=0;left=0;bottom=0;right=0;align=left;spacingLeft=6;fontSize=16;" vertex="1" parent="2nq4a87pyCxHnOQXuyUR-51">
          <mxGeometry x="30" width="220" height="30" as="geometry">
            <mxRectangle width="220" height="30" as="alternateBounds" />
          </mxGeometry>
        </mxCell>
        <mxCell id="2nq4a87pyCxHnOQXuyUR-48" style="shape=partialRectangle;collapsible=0;dropTarget=0;pointerEvents=0;fillColor=none;points=[[0,0.5],[1,0.5]];portConstraint=eastwest;top=0;left=0;right=0;bottom=0;fontSize=16;" vertex="1" parent="2nq4a87pyCxHnOQXuyUR-29">
          <mxGeometry y="272" width="250" height="30" as="geometry" />
        </mxCell>
        <mxCell id="2nq4a87pyCxHnOQXuyUR-49" style="shape=partialRectangle;overflow=hidden;connectable=0;fillColor=none;top=0;left=0;bottom=0;right=0;fontSize=16;" vertex="1" parent="2nq4a87pyCxHnOQXuyUR-48">
          <mxGeometry width="30" height="30" as="geometry">
            <mxRectangle width="30" height="30" as="alternateBounds" />
          </mxGeometry>
        </mxCell>
        <mxCell id="2nq4a87pyCxHnOQXuyUR-50" value="creation_date" style="shape=partialRectangle;overflow=hidden;connectable=0;fillColor=none;top=0;left=0;bottom=0;right=0;align=left;spacingLeft=6;fontSize=16;" vertex="1" parent="2nq4a87pyCxHnOQXuyUR-48">
          <mxGeometry x="30" width="220" height="30" as="geometry">
            <mxRectangle width="220" height="30" as="alternateBounds" />
          </mxGeometry>
        </mxCell>
        <mxCell id="2nq4a87pyCxHnOQXuyUR-45" style="shape=partialRectangle;collapsible=0;dropTarget=0;pointerEvents=0;fillColor=none;points=[[0,0.5],[1,0.5]];portConstraint=eastwest;top=0;left=0;right=0;bottom=0;fontSize=16;" vertex="1" parent="2nq4a87pyCxHnOQXuyUR-29">
          <mxGeometry y="302" width="250" height="30" as="geometry" />
        </mxCell>
        <mxCell id="2nq4a87pyCxHnOQXuyUR-46" style="shape=partialRectangle;overflow=hidden;connectable=0;fillColor=none;top=0;left=0;bottom=0;right=0;fontSize=16;" vertex="1" parent="2nq4a87pyCxHnOQXuyUR-45">
          <mxGeometry width="30" height="30" as="geometry">
            <mxRectangle width="30" height="30" as="alternateBounds" />
          </mxGeometry>
        </mxCell>
        <mxCell id="2nq4a87pyCxHnOQXuyUR-47" value="time_spent" style="shape=partialRectangle;overflow=hidden;connectable=0;fillColor=none;top=0;left=0;bottom=0;right=0;align=left;spacingLeft=6;fontSize=16;" vertex="1" parent="2nq4a87pyCxHnOQXuyUR-45">
          <mxGeometry x="30" width="220" height="30" as="geometry">
            <mxRectangle width="220" height="30" as="alternateBounds" />
          </mxGeometry>
        </mxCell>
        <mxCell id="2nq4a87pyCxHnOQXuyUR-42" style="shape=partialRectangle;collapsible=0;dropTarget=0;pointerEvents=0;fillColor=none;points=[[0,0.5],[1,0.5]];portConstraint=eastwest;top=0;left=0;right=0;bottom=0;fontSize=16;" vertex="1" parent="2nq4a87pyCxHnOQXuyUR-29">
          <mxGeometry y="332" width="250" height="30" as="geometry" />
        </mxCell>
        <mxCell id="2nq4a87pyCxHnOQXuyUR-43" style="shape=partialRectangle;overflow=hidden;connectable=0;fillColor=none;top=0;left=0;bottom=0;right=0;fontSize=16;" vertex="1" parent="2nq4a87pyCxHnOQXuyUR-42">
          <mxGeometry width="30" height="30" as="geometry">
            <mxRectangle width="30" height="30" as="alternateBounds" />
          </mxGeometry>
        </mxCell>
        <mxCell id="2nq4a87pyCxHnOQXuyUR-44" value="time_given" style="shape=partialRectangle;overflow=hidden;connectable=0;fillColor=none;top=0;left=0;bottom=0;right=0;align=left;spacingLeft=6;fontSize=16;" vertex="1" parent="2nq4a87pyCxHnOQXuyUR-42">
          <mxGeometry x="30" width="220" height="30" as="geometry">
            <mxRectangle width="220" height="30" as="alternateBounds" />
          </mxGeometry>
        </mxCell>
        <mxCell id="2nq4a87pyCxHnOQXuyUR-39" style="shape=partialRectangle;collapsible=0;dropTarget=0;pointerEvents=0;fillColor=none;points=[[0,0.5],[1,0.5]];portConstraint=eastwest;top=0;left=0;right=0;bottom=0;fontSize=16;" vertex="1" parent="2nq4a87pyCxHnOQXuyUR-29">
          <mxGeometry y="362" width="250" height="30" as="geometry" />
        </mxCell>
        <mxCell id="2nq4a87pyCxHnOQXuyUR-40" style="shape=partialRectangle;overflow=hidden;connectable=0;fillColor=none;top=0;left=0;bottom=0;right=0;fontSize=16;" vertex="1" parent="2nq4a87pyCxHnOQXuyUR-39">
          <mxGeometry width="30" height="30" as="geometry">
            <mxRectangle width="30" height="30" as="alternateBounds" />
          </mxGeometry>
        </mxCell>
        <mxCell id="2nq4a87pyCxHnOQXuyUR-41" value="num_in_project" style="shape=partialRectangle;overflow=hidden;connectable=0;fillColor=none;top=0;left=0;bottom=0;right=0;align=left;spacingLeft=6;fontSize=16;" vertex="1" parent="2nq4a87pyCxHnOQXuyUR-39">
          <mxGeometry x="30" width="220" height="30" as="geometry">
            <mxRectangle width="220" height="30" as="alternateBounds" />
          </mxGeometry>
        </mxCell>
        <mxCell id="2nq4a87pyCxHnOQXuyUR-103" value="User" style="shape=table;startSize=30;container=1;collapsible=1;childLayout=tableLayout;fixedRows=1;rowLines=0;fontStyle=1;align=center;resizeLast=1;fontSize=16;" vertex="1" parent="1">
          <mxGeometry x="691" y="969" width="250" height="307.0625915527346" as="geometry" />
        </mxCell>
        <mxCell id="2nq4a87pyCxHnOQXuyUR-104" value="" style="shape=partialRectangle;collapsible=0;dropTarget=0;pointerEvents=0;fillColor=none;points=[[0,0.5],[1,0.5]];portConstraint=eastwest;top=0;left=0;right=0;bottom=1;fontSize=16;" vertex="1" parent="2nq4a87pyCxHnOQXuyUR-103">
          <mxGeometry y="30" width="250" height="30" as="geometry" />
        </mxCell>
        <mxCell id="2nq4a87pyCxHnOQXuyUR-105" value="PK" style="shape=partialRectangle;overflow=hidden;connectable=0;fillColor=none;top=0;left=0;bottom=0;right=0;fontStyle=1;fontSize=16;" vertex="1" parent="2nq4a87pyCxHnOQXuyUR-104">
          <mxGeometry width="30" height="30" as="geometry">
            <mxRectangle width="30" height="30" as="alternateBounds" />
          </mxGeometry>
        </mxCell>
        <mxCell id="2nq4a87pyCxHnOQXuyUR-106" value="user_id" style="shape=partialRectangle;overflow=hidden;connectable=0;fillColor=none;top=0;left=0;bottom=0;right=0;align=left;spacingLeft=6;fontStyle=5;fontSize=16;" vertex="1" parent="2nq4a87pyCxHnOQXuyUR-104">
          <mxGeometry x="30" width="220" height="30" as="geometry">
            <mxRectangle width="220" height="30" as="alternateBounds" />
          </mxGeometry>
        </mxCell>
        <mxCell id="2nq4a87pyCxHnOQXuyUR-107" value="" style="shape=partialRectangle;collapsible=0;dropTarget=0;pointerEvents=0;fillColor=none;points=[[0,0.5],[1,0.5]];portConstraint=eastwest;top=0;left=0;right=0;bottom=0;fontSize=16;" vertex="1" parent="2nq4a87pyCxHnOQXuyUR-103">
          <mxGeometry y="60" width="250" height="24" as="geometry" />
        </mxCell>
        <mxCell id="2nq4a87pyCxHnOQXuyUR-108" value="FK" style="shape=partialRectangle;overflow=hidden;connectable=0;fillColor=none;top=0;left=0;bottom=0;right=0;fontSize=16;" vertex="1" parent="2nq4a87pyCxHnOQXuyUR-107">
          <mxGeometry width="30" height="24" as="geometry">
            <mxRectangle width="30" height="24" as="alternateBounds" />
          </mxGeometry>
        </mxCell>
        <mxCell id="2nq4a87pyCxHnOQXuyUR-109" value="position_id" style="shape=partialRectangle;overflow=hidden;connectable=0;fillColor=none;top=0;left=0;bottom=0;right=0;align=left;spacingLeft=6;fontSize=16;" vertex="1" parent="2nq4a87pyCxHnOQXuyUR-107">
          <mxGeometry x="30" width="220" height="24" as="geometry">
            <mxRectangle width="220" height="24" as="alternateBounds" />
          </mxGeometry>
        </mxCell>
        <mxCell id="2nq4a87pyCxHnOQXuyUR-134" style="shape=partialRectangle;collapsible=0;dropTarget=0;pointerEvents=0;fillColor=none;points=[[0,0.5],[1,0.5]];portConstraint=eastwest;top=0;left=0;right=0;bottom=0;fontSize=16;" vertex="1" parent="2nq4a87pyCxHnOQXuyUR-103">
          <mxGeometry y="84" width="250" height="26" as="geometry" />
        </mxCell>
        <mxCell id="2nq4a87pyCxHnOQXuyUR-135" value="FK" style="shape=partialRectangle;overflow=hidden;connectable=0;fillColor=none;top=0;left=0;bottom=0;right=0;fontSize=16;" vertex="1" parent="2nq4a87pyCxHnOQXuyUR-134">
          <mxGeometry width="30" height="26" as="geometry">
            <mxRectangle width="30" height="26" as="alternateBounds" />
          </mxGeometry>
        </mxCell>
        <mxCell id="2nq4a87pyCxHnOQXuyUR-136" value="department_id" style="shape=partialRectangle;overflow=hidden;connectable=0;fillColor=none;top=0;left=0;bottom=0;right=0;align=left;spacingLeft=6;fontSize=16;" vertex="1" parent="2nq4a87pyCxHnOQXuyUR-134">
          <mxGeometry x="30" width="220" height="26" as="geometry">
            <mxRectangle width="220" height="26" as="alternateBounds" />
          </mxGeometry>
        </mxCell>
        <mxCell id="2nq4a87pyCxHnOQXuyUR-131" style="shape=partialRectangle;collapsible=0;dropTarget=0;pointerEvents=0;fillColor=none;points=[[0,0.5],[1,0.5]];portConstraint=eastwest;top=0;left=0;right=0;bottom=0;fontSize=16;" vertex="1" parent="2nq4a87pyCxHnOQXuyUR-103">
          <mxGeometry y="110" width="250" height="24" as="geometry" />
        </mxCell>
        <mxCell id="2nq4a87pyCxHnOQXuyUR-132" value="FK" style="shape=partialRectangle;overflow=hidden;connectable=0;fillColor=none;top=0;left=0;bottom=0;right=0;fontSize=16;" vertex="1" parent="2nq4a87pyCxHnOQXuyUR-131">
          <mxGeometry width="30" height="24" as="geometry">
            <mxRectangle width="30" height="24" as="alternateBounds" />
          </mxGeometry>
        </mxCell>
        <mxCell id="2nq4a87pyCxHnOQXuyUR-133" value="work_schedule_id" style="shape=partialRectangle;overflow=hidden;connectable=0;fillColor=none;top=0;left=0;bottom=0;right=0;align=left;spacingLeft=6;fontSize=16;" vertex="1" parent="2nq4a87pyCxHnOQXuyUR-131">
          <mxGeometry x="30" width="220" height="24" as="geometry">
            <mxRectangle width="220" height="24" as="alternateBounds" />
          </mxGeometry>
        </mxCell>
        <mxCell id="2nq4a87pyCxHnOQXuyUR-128" style="shape=partialRectangle;collapsible=0;dropTarget=0;pointerEvents=0;fillColor=none;points=[[0,0.5],[1,0.5]];portConstraint=eastwest;top=0;left=0;right=0;bottom=0;fontSize=16;" vertex="1" parent="2nq4a87pyCxHnOQXuyUR-103">
          <mxGeometry y="134" width="250" height="24" as="geometry" />
        </mxCell>
        <mxCell id="2nq4a87pyCxHnOQXuyUR-129" style="shape=partialRectangle;overflow=hidden;connectable=0;fillColor=none;top=0;left=0;bottom=0;right=0;fontSize=16;" vertex="1" parent="2nq4a87pyCxHnOQXuyUR-128">
          <mxGeometry width="30" height="24" as="geometry">
            <mxRectangle width="30" height="24" as="alternateBounds" />
          </mxGeometry>
        </mxCell>
        <mxCell id="2nq4a87pyCxHnOQXuyUR-130" value="name" style="shape=partialRectangle;overflow=hidden;connectable=0;fillColor=none;top=0;left=0;bottom=0;right=0;align=left;spacingLeft=6;fontSize=16;" vertex="1" parent="2nq4a87pyCxHnOQXuyUR-128">
          <mxGeometry x="30" width="220" height="24" as="geometry">
            <mxRectangle width="220" height="24" as="alternateBounds" />
          </mxGeometry>
        </mxCell>
        <mxCell id="2nq4a87pyCxHnOQXuyUR-125" style="shape=partialRectangle;collapsible=0;dropTarget=0;pointerEvents=0;fillColor=none;points=[[0,0.5],[1,0.5]];portConstraint=eastwest;top=0;left=0;right=0;bottom=0;fontSize=16;" vertex="1" parent="2nq4a87pyCxHnOQXuyUR-103">
          <mxGeometry y="158" width="250" height="24" as="geometry" />
        </mxCell>
        <mxCell id="2nq4a87pyCxHnOQXuyUR-126" style="shape=partialRectangle;overflow=hidden;connectable=0;fillColor=none;top=0;left=0;bottom=0;right=0;fontSize=16;" vertex="1" parent="2nq4a87pyCxHnOQXuyUR-125">
          <mxGeometry width="30" height="24" as="geometry">
            <mxRectangle width="30" height="24" as="alternateBounds" />
          </mxGeometry>
        </mxCell>
        <mxCell id="2nq4a87pyCxHnOQXuyUR-127" value="surname" style="shape=partialRectangle;overflow=hidden;connectable=0;fillColor=none;top=0;left=0;bottom=0;right=0;align=left;spacingLeft=6;fontSize=16;" vertex="1" parent="2nq4a87pyCxHnOQXuyUR-125">
          <mxGeometry x="30" width="220" height="24" as="geometry">
            <mxRectangle width="220" height="24" as="alternateBounds" />
          </mxGeometry>
        </mxCell>
        <mxCell id="2nq4a87pyCxHnOQXuyUR-122" style="shape=partialRectangle;collapsible=0;dropTarget=0;pointerEvents=0;fillColor=none;points=[[0,0.5],[1,0.5]];portConstraint=eastwest;top=0;left=0;right=0;bottom=0;fontSize=16;" vertex="1" parent="2nq4a87pyCxHnOQXuyUR-103">
          <mxGeometry y="182" width="250" height="24" as="geometry" />
        </mxCell>
        <mxCell id="2nq4a87pyCxHnOQXuyUR-123" style="shape=partialRectangle;overflow=hidden;connectable=0;fillColor=none;top=0;left=0;bottom=0;right=0;fontSize=16;" vertex="1" parent="2nq4a87pyCxHnOQXuyUR-122">
          <mxGeometry width="30" height="24" as="geometry">
            <mxRectangle width="30" height="24" as="alternateBounds" />
          </mxGeometry>
        </mxCell>
        <mxCell id="2nq4a87pyCxHnOQXuyUR-124" value="patronymic" style="shape=partialRectangle;overflow=hidden;connectable=0;fillColor=none;top=0;left=0;bottom=0;right=0;align=left;spacingLeft=6;fontSize=16;" vertex="1" parent="2nq4a87pyCxHnOQXuyUR-122">
          <mxGeometry x="30" width="220" height="24" as="geometry">
            <mxRectangle width="220" height="24" as="alternateBounds" />
          </mxGeometry>
        </mxCell>
        <mxCell id="2nq4a87pyCxHnOQXuyUR-119" style="shape=partialRectangle;collapsible=0;dropTarget=0;pointerEvents=0;fillColor=none;points=[[0,0.5],[1,0.5]];portConstraint=eastwest;top=0;left=0;right=0;bottom=0;fontSize=16;" vertex="1" parent="2nq4a87pyCxHnOQXuyUR-103">
          <mxGeometry y="206" width="250" height="24" as="geometry" />
        </mxCell>
        <mxCell id="2nq4a87pyCxHnOQXuyUR-120" style="shape=partialRectangle;overflow=hidden;connectable=0;fillColor=none;top=0;left=0;bottom=0;right=0;fontSize=16;" vertex="1" parent="2nq4a87pyCxHnOQXuyUR-119">
          <mxGeometry width="30" height="24" as="geometry">
            <mxRectangle width="30" height="24" as="alternateBounds" />
          </mxGeometry>
        </mxCell>
        <mxCell id="2nq4a87pyCxHnOQXuyUR-121" value="phone_num" style="shape=partialRectangle;overflow=hidden;connectable=0;fillColor=none;top=0;left=0;bottom=0;right=0;align=left;spacingLeft=6;fontSize=16;" vertex="1" parent="2nq4a87pyCxHnOQXuyUR-119">
          <mxGeometry x="30" width="220" height="24" as="geometry">
            <mxRectangle width="220" height="24" as="alternateBounds" />
          </mxGeometry>
        </mxCell>
        <mxCell id="2nq4a87pyCxHnOQXuyUR-116" style="shape=partialRectangle;collapsible=0;dropTarget=0;pointerEvents=0;fillColor=none;points=[[0,0.5],[1,0.5]];portConstraint=eastwest;top=0;left=0;right=0;bottom=0;fontSize=16;" vertex="1" parent="2nq4a87pyCxHnOQXuyUR-103">
          <mxGeometry y="230" width="250" height="24" as="geometry" />
        </mxCell>
        <mxCell id="2nq4a87pyCxHnOQXuyUR-117" style="shape=partialRectangle;overflow=hidden;connectable=0;fillColor=none;top=0;left=0;bottom=0;right=0;fontSize=16;" vertex="1" parent="2nq4a87pyCxHnOQXuyUR-116">
          <mxGeometry width="30" height="24" as="geometry">
            <mxRectangle width="30" height="24" as="alternateBounds" />
          </mxGeometry>
        </mxCell>
        <mxCell id="2nq4a87pyCxHnOQXuyUR-118" value="role" style="shape=partialRectangle;overflow=hidden;connectable=0;fillColor=none;top=0;left=0;bottom=0;right=0;align=left;spacingLeft=6;fontSize=16;" vertex="1" parent="2nq4a87pyCxHnOQXuyUR-116">
          <mxGeometry x="30" width="220" height="24" as="geometry">
            <mxRectangle width="220" height="24" as="alternateBounds" />
          </mxGeometry>
        </mxCell>
        <mxCell id="2nq4a87pyCxHnOQXuyUR-113" style="shape=partialRectangle;collapsible=0;dropTarget=0;pointerEvents=0;fillColor=none;points=[[0,0.5],[1,0.5]];portConstraint=eastwest;top=0;left=0;right=0;bottom=0;fontSize=16;" vertex="1" parent="2nq4a87pyCxHnOQXuyUR-103">
          <mxGeometry y="254" width="250" height="24" as="geometry" />
        </mxCell>
        <mxCell id="2nq4a87pyCxHnOQXuyUR-114" style="shape=partialRectangle;overflow=hidden;connectable=0;fillColor=none;top=0;left=0;bottom=0;right=0;fontSize=16;" vertex="1" parent="2nq4a87pyCxHnOQXuyUR-113">
          <mxGeometry width="30" height="24" as="geometry">
            <mxRectangle width="30" height="24" as="alternateBounds" />
          </mxGeometry>
        </mxCell>
        <mxCell id="2nq4a87pyCxHnOQXuyUR-115" value="login" style="shape=partialRectangle;overflow=hidden;connectable=0;fillColor=none;top=0;left=0;bottom=0;right=0;align=left;spacingLeft=6;fontSize=16;" vertex="1" parent="2nq4a87pyCxHnOQXuyUR-113">
          <mxGeometry x="30" width="220" height="24" as="geometry">
            <mxRectangle width="220" height="24" as="alternateBounds" />
          </mxGeometry>
        </mxCell>
        <mxCell id="2nq4a87pyCxHnOQXuyUR-110" style="shape=partialRectangle;collapsible=0;dropTarget=0;pointerEvents=0;fillColor=none;points=[[0,0.5],[1,0.5]];portConstraint=eastwest;top=0;left=0;right=0;bottom=0;fontSize=16;" vertex="1" parent="2nq4a87pyCxHnOQXuyUR-103">
          <mxGeometry y="278" width="250" height="20" as="geometry" />
        </mxCell>
        <mxCell id="2nq4a87pyCxHnOQXuyUR-111" style="shape=partialRectangle;overflow=hidden;connectable=0;fillColor=none;top=0;left=0;bottom=0;right=0;fontSize=16;" vertex="1" parent="2nq4a87pyCxHnOQXuyUR-110">
          <mxGeometry width="30" height="20" as="geometry">
            <mxRectangle width="30" height="20" as="alternateBounds" />
          </mxGeometry>
        </mxCell>
        <mxCell id="2nq4a87pyCxHnOQXuyUR-112" value="password" style="shape=partialRectangle;overflow=hidden;connectable=0;fillColor=none;top=0;left=0;bottom=0;right=0;align=left;spacingLeft=6;fontSize=16;" vertex="1" parent="2nq4a87pyCxHnOQXuyUR-110">
          <mxGeometry x="30" width="220" height="20" as="geometry">
            <mxRectangle width="220" height="20" as="alternateBounds" />
          </mxGeometry>
        </mxCell>
        <mxCell id="2nq4a87pyCxHnOQXuyUR-137" value="Project" style="shape=table;startSize=30;container=1;collapsible=1;childLayout=tableLayout;fixedRows=1;rowLines=0;fontStyle=1;align=center;resizeLast=1;fontSize=16;" vertex="1" parent="1">
          <mxGeometry x="776" y="526" width="250" height="121.45684315608094" as="geometry" />
        </mxCell>
        <mxCell id="2nq4a87pyCxHnOQXuyUR-138" value="" style="shape=partialRectangle;collapsible=0;dropTarget=0;pointerEvents=0;fillColor=none;points=[[0,0.5],[1,0.5]];portConstraint=eastwest;top=0;left=0;right=0;bottom=1;fontSize=16;" vertex="1" parent="2nq4a87pyCxHnOQXuyUR-137">
          <mxGeometry y="30" width="250" height="30" as="geometry" />
        </mxCell>
        <mxCell id="2nq4a87pyCxHnOQXuyUR-139" value="PK" style="shape=partialRectangle;overflow=hidden;connectable=0;fillColor=none;top=0;left=0;bottom=0;right=0;fontStyle=1;fontSize=16;" vertex="1" parent="2nq4a87pyCxHnOQXuyUR-138">
          <mxGeometry width="30" height="30" as="geometry">
            <mxRectangle width="30" height="30" as="alternateBounds" />
          </mxGeometry>
        </mxCell>
        <mxCell id="2nq4a87pyCxHnOQXuyUR-140" value="project_id" style="shape=partialRectangle;overflow=hidden;connectable=0;fillColor=none;top=0;left=0;bottom=0;right=0;align=left;spacingLeft=6;fontStyle=5;fontSize=16;" vertex="1" parent="2nq4a87pyCxHnOQXuyUR-138">
          <mxGeometry x="30" width="220" height="30" as="geometry">
            <mxRectangle width="220" height="30" as="alternateBounds" />
          </mxGeometry>
        </mxCell>
        <mxCell id="2nq4a87pyCxHnOQXuyUR-141" value="" style="shape=partialRectangle;collapsible=0;dropTarget=0;pointerEvents=0;fillColor=none;points=[[0,0.5],[1,0.5]];portConstraint=eastwest;top=0;left=0;right=0;bottom=0;fontSize=16;" vertex="1" parent="2nq4a87pyCxHnOQXuyUR-137">
          <mxGeometry y="60" width="250" height="26" as="geometry" />
        </mxCell>
        <mxCell id="2nq4a87pyCxHnOQXuyUR-142" value="FK" style="shape=partialRectangle;overflow=hidden;connectable=0;fillColor=none;top=0;left=0;bottom=0;right=0;fontSize=16;" vertex="1" parent="2nq4a87pyCxHnOQXuyUR-141">
          <mxGeometry width="30" height="26" as="geometry">
            <mxRectangle width="30" height="26" as="alternateBounds" />
          </mxGeometry>
        </mxCell>
        <mxCell id="2nq4a87pyCxHnOQXuyUR-143" value="manager_id" style="shape=partialRectangle;overflow=hidden;connectable=0;fillColor=none;top=0;left=0;bottom=0;right=0;align=left;spacingLeft=6;fontSize=16;" vertex="1" parent="2nq4a87pyCxHnOQXuyUR-141">
          <mxGeometry x="30" width="220" height="26" as="geometry">
            <mxRectangle width="220" height="26" as="alternateBounds" />
          </mxGeometry>
        </mxCell>
        <mxCell id="2nq4a87pyCxHnOQXuyUR-144" style="shape=partialRectangle;collapsible=0;dropTarget=0;pointerEvents=0;fillColor=none;points=[[0,0.5],[1,0.5]];portConstraint=eastwest;top=0;left=0;right=0;bottom=0;fontSize=16;" vertex="1" parent="2nq4a87pyCxHnOQXuyUR-137">
          <mxGeometry y="86" width="250" height="26" as="geometry" />
        </mxCell>
        <mxCell id="2nq4a87pyCxHnOQXuyUR-145" style="shape=partialRectangle;overflow=hidden;connectable=0;fillColor=none;top=0;left=0;bottom=0;right=0;fontSize=16;" vertex="1" parent="2nq4a87pyCxHnOQXuyUR-144">
          <mxGeometry width="30" height="26" as="geometry">
            <mxRectangle width="30" height="26" as="alternateBounds" />
          </mxGeometry>
        </mxCell>
        <mxCell id="2nq4a87pyCxHnOQXuyUR-146" value="name" style="shape=partialRectangle;overflow=hidden;connectable=0;fillColor=none;top=0;left=0;bottom=0;right=0;align=left;spacingLeft=6;fontSize=16;" vertex="1" parent="2nq4a87pyCxHnOQXuyUR-144">
          <mxGeometry x="30" width="220" height="26" as="geometry">
            <mxRectangle width="220" height="26" as="alternateBounds" />
          </mxGeometry>
        </mxCell>
        <mxCell id="2nq4a87pyCxHnOQXuyUR-147" value="TaskType" style="shape=table;startSize=30;container=1;collapsible=1;childLayout=tableLayout;fixedRows=1;rowLines=0;fontStyle=1;align=center;resizeLast=1;fontSize=16;" vertex="1" parent="1">
          <mxGeometry x="1541" y="526" width="250" height="95.61057193462659" as="geometry" />
        </mxCell>
        <mxCell id="2nq4a87pyCxHnOQXuyUR-148" value="" style="shape=partialRectangle;collapsible=0;dropTarget=0;pointerEvents=0;fillColor=none;points=[[0,0.5],[1,0.5]];portConstraint=eastwest;top=0;left=0;right=0;bottom=1;fontSize=16;" vertex="1" parent="2nq4a87pyCxHnOQXuyUR-147">
          <mxGeometry y="30" width="250" height="30" as="geometry" />
        </mxCell>
        <mxCell id="2nq4a87pyCxHnOQXuyUR-149" value="PK" style="shape=partialRectangle;overflow=hidden;connectable=0;fillColor=none;top=0;left=0;bottom=0;right=0;fontStyle=1;fontSize=16;" vertex="1" parent="2nq4a87pyCxHnOQXuyUR-148">
          <mxGeometry width="30" height="30" as="geometry">
            <mxRectangle width="30" height="30" as="alternateBounds" />
          </mxGeometry>
        </mxCell>
        <mxCell id="2nq4a87pyCxHnOQXuyUR-150" value="task_type_id" style="shape=partialRectangle;overflow=hidden;connectable=0;fillColor=none;top=0;left=0;bottom=0;right=0;align=left;spacingLeft=6;fontStyle=5;fontSize=16;" vertex="1" parent="2nq4a87pyCxHnOQXuyUR-148">
          <mxGeometry x="30" width="220" height="30" as="geometry">
            <mxRectangle width="220" height="30" as="alternateBounds" />
          </mxGeometry>
        </mxCell>
        <mxCell id="2nq4a87pyCxHnOQXuyUR-151" value="" style="shape=partialRectangle;collapsible=0;dropTarget=0;pointerEvents=0;fillColor=none;points=[[0,0.5],[1,0.5]];portConstraint=eastwest;top=0;left=0;right=0;bottom=0;fontSize=16;" vertex="1" parent="2nq4a87pyCxHnOQXuyUR-147">
          <mxGeometry y="60" width="250" height="26" as="geometry" />
        </mxCell>
        <mxCell id="2nq4a87pyCxHnOQXuyUR-152" value="" style="shape=partialRectangle;overflow=hidden;connectable=0;fillColor=none;top=0;left=0;bottom=0;right=0;fontSize=16;" vertex="1" parent="2nq4a87pyCxHnOQXuyUR-151">
          <mxGeometry width="30" height="26" as="geometry">
            <mxRectangle width="30" height="26" as="alternateBounds" />
          </mxGeometry>
        </mxCell>
        <mxCell id="2nq4a87pyCxHnOQXuyUR-153" value="name" style="shape=partialRectangle;overflow=hidden;connectable=0;fillColor=none;top=0;left=0;bottom=0;right=0;align=left;spacingLeft=6;fontSize=16;" vertex="1" parent="2nq4a87pyCxHnOQXuyUR-151">
          <mxGeometry x="30" width="220" height="26" as="geometry">
            <mxRectangle width="220" height="26" as="alternateBounds" />
          </mxGeometry>
        </mxCell>
        <mxCell id="2nq4a87pyCxHnOQXuyUR-154" value="Vacation" style="shape=table;startSize=30;container=1;collapsible=1;childLayout=tableLayout;fixedRows=1;rowLines=0;fontStyle=1;align=center;resizeLast=1;fontSize=16;" vertex="1" parent="1">
          <mxGeometry x="20" y="1344" width="250" height="219.68754196166992" as="geometry" />
        </mxCell>
        <mxCell id="2nq4a87pyCxHnOQXuyUR-155" value="" style="shape=partialRectangle;collapsible=0;dropTarget=0;pointerEvents=0;fillColor=none;points=[[0,0.5],[1,0.5]];portConstraint=eastwest;top=0;left=0;right=0;bottom=1;fontSize=16;" vertex="1" parent="2nq4a87pyCxHnOQXuyUR-154">
          <mxGeometry y="30" width="250" height="30" as="geometry" />
        </mxCell>
        <mxCell id="2nq4a87pyCxHnOQXuyUR-156" value="PK" style="shape=partialRectangle;overflow=hidden;connectable=0;fillColor=none;top=0;left=0;bottom=0;right=0;fontStyle=1;fontSize=16;" vertex="1" parent="2nq4a87pyCxHnOQXuyUR-155">
          <mxGeometry width="30" height="30" as="geometry">
            <mxRectangle width="30" height="30" as="alternateBounds" />
          </mxGeometry>
        </mxCell>
        <mxCell id="2nq4a87pyCxHnOQXuyUR-157" value="vacation_id" style="shape=partialRectangle;overflow=hidden;connectable=0;fillColor=none;top=0;left=0;bottom=0;right=0;align=left;spacingLeft=6;fontStyle=5;fontSize=16;" vertex="1" parent="2nq4a87pyCxHnOQXuyUR-155">
          <mxGeometry x="30" width="220" height="30" as="geometry">
            <mxRectangle width="220" height="30" as="alternateBounds" />
          </mxGeometry>
        </mxCell>
        <mxCell id="2nq4a87pyCxHnOQXuyUR-158" value="" style="shape=partialRectangle;collapsible=0;dropTarget=0;pointerEvents=0;fillColor=none;points=[[0,0.5],[1,0.5]];portConstraint=eastwest;top=0;left=0;right=0;bottom=0;fontSize=16;" vertex="1" parent="2nq4a87pyCxHnOQXuyUR-154">
          <mxGeometry y="60" width="250" height="30" as="geometry" />
        </mxCell>
        <mxCell id="2nq4a87pyCxHnOQXuyUR-159" value="FK" style="shape=partialRectangle;overflow=hidden;connectable=0;fillColor=none;top=0;left=0;bottom=0;right=0;fontSize=16;" vertex="1" parent="2nq4a87pyCxHnOQXuyUR-158">
          <mxGeometry width="30" height="30" as="geometry">
            <mxRectangle width="30" height="30" as="alternateBounds" />
          </mxGeometry>
        </mxCell>
        <mxCell id="2nq4a87pyCxHnOQXuyUR-160" value="employee_id" style="shape=partialRectangle;overflow=hidden;connectable=0;fillColor=none;top=0;left=0;bottom=0;right=0;align=left;spacingLeft=6;fontSize=16;" vertex="1" parent="2nq4a87pyCxHnOQXuyUR-158">
          <mxGeometry x="30" width="220" height="30" as="geometry">
            <mxRectangle width="220" height="30" as="alternateBounds" />
          </mxGeometry>
        </mxCell>
        <mxCell id="2nq4a87pyCxHnOQXuyUR-170" style="shape=partialRectangle;collapsible=0;dropTarget=0;pointerEvents=0;fillColor=none;points=[[0,0.5],[1,0.5]];portConstraint=eastwest;top=0;left=0;right=0;bottom=0;fontSize=16;" vertex="1" parent="2nq4a87pyCxHnOQXuyUR-154">
          <mxGeometry y="90" width="250" height="30" as="geometry" />
        </mxCell>
        <mxCell id="2nq4a87pyCxHnOQXuyUR-171" style="shape=partialRectangle;overflow=hidden;connectable=0;fillColor=none;top=0;left=0;bottom=0;right=0;fontSize=16;" vertex="1" parent="2nq4a87pyCxHnOQXuyUR-170">
          <mxGeometry width="30" height="30" as="geometry">
            <mxRectangle width="30" height="30" as="alternateBounds" />
          </mxGeometry>
        </mxCell>
        <mxCell id="2nq4a87pyCxHnOQXuyUR-172" value="start" style="shape=partialRectangle;overflow=hidden;connectable=0;fillColor=none;top=0;left=0;bottom=0;right=0;align=left;spacingLeft=6;fontSize=16;" vertex="1" parent="2nq4a87pyCxHnOQXuyUR-170">
          <mxGeometry x="30" width="220" height="30" as="geometry">
            <mxRectangle width="220" height="30" as="alternateBounds" />
          </mxGeometry>
        </mxCell>
        <mxCell id="2nq4a87pyCxHnOQXuyUR-167" style="shape=partialRectangle;collapsible=0;dropTarget=0;pointerEvents=0;fillColor=none;points=[[0,0.5],[1,0.5]];portConstraint=eastwest;top=0;left=0;right=0;bottom=0;fontSize=16;" vertex="1" parent="2nq4a87pyCxHnOQXuyUR-154">
          <mxGeometry y="120" width="250" height="30" as="geometry" />
        </mxCell>
        <mxCell id="2nq4a87pyCxHnOQXuyUR-168" style="shape=partialRectangle;overflow=hidden;connectable=0;fillColor=none;top=0;left=0;bottom=0;right=0;fontSize=16;" vertex="1" parent="2nq4a87pyCxHnOQXuyUR-167">
          <mxGeometry width="30" height="30" as="geometry">
            <mxRectangle width="30" height="30" as="alternateBounds" />
          </mxGeometry>
        </mxCell>
        <mxCell id="2nq4a87pyCxHnOQXuyUR-169" value="end" style="shape=partialRectangle;overflow=hidden;connectable=0;fillColor=none;top=0;left=0;bottom=0;right=0;align=left;spacingLeft=6;fontSize=16;" vertex="1" parent="2nq4a87pyCxHnOQXuyUR-167">
          <mxGeometry x="30" width="220" height="30" as="geometry">
            <mxRectangle width="220" height="30" as="alternateBounds" />
          </mxGeometry>
        </mxCell>
        <mxCell id="2nq4a87pyCxHnOQXuyUR-164" style="shape=partialRectangle;collapsible=0;dropTarget=0;pointerEvents=0;fillColor=none;points=[[0,0.5],[1,0.5]];portConstraint=eastwest;top=0;left=0;right=0;bottom=0;fontSize=16;" vertex="1" parent="2nq4a87pyCxHnOQXuyUR-154">
          <mxGeometry y="150" width="250" height="30" as="geometry" />
        </mxCell>
        <mxCell id="2nq4a87pyCxHnOQXuyUR-165" style="shape=partialRectangle;overflow=hidden;connectable=0;fillColor=none;top=0;left=0;bottom=0;right=0;fontSize=16;" vertex="1" parent="2nq4a87pyCxHnOQXuyUR-164">
          <mxGeometry width="30" height="30" as="geometry">
            <mxRectangle width="30" height="30" as="alternateBounds" />
          </mxGeometry>
        </mxCell>
        <mxCell id="2nq4a87pyCxHnOQXuyUR-166" value="type" style="shape=partialRectangle;overflow=hidden;connectable=0;fillColor=none;top=0;left=0;bottom=0;right=0;align=left;spacingLeft=6;fontSize=16;" vertex="1" parent="2nq4a87pyCxHnOQXuyUR-164">
          <mxGeometry x="30" width="220" height="30" as="geometry">
            <mxRectangle width="220" height="30" as="alternateBounds" />
          </mxGeometry>
        </mxCell>
        <mxCell id="2nq4a87pyCxHnOQXuyUR-161" style="shape=partialRectangle;collapsible=0;dropTarget=0;pointerEvents=0;fillColor=none;points=[[0,0.5],[1,0.5]];portConstraint=eastwest;top=0;left=0;right=0;bottom=0;fontSize=16;" vertex="1" parent="2nq4a87pyCxHnOQXuyUR-154">
          <mxGeometry y="180" width="250" height="30" as="geometry" />
        </mxCell>
        <mxCell id="2nq4a87pyCxHnOQXuyUR-162" style="shape=partialRectangle;overflow=hidden;connectable=0;fillColor=none;top=0;left=0;bottom=0;right=0;fontSize=16;" vertex="1" parent="2nq4a87pyCxHnOQXuyUR-161">
          <mxGeometry width="30" height="30" as="geometry">
            <mxRectangle width="30" height="30" as="alternateBounds" />
          </mxGeometry>
        </mxCell>
        <mxCell id="2nq4a87pyCxHnOQXuyUR-163" value="status" style="shape=partialRectangle;overflow=hidden;connectable=0;fillColor=none;top=0;left=0;bottom=0;right=0;align=left;spacingLeft=6;fontSize=16;" vertex="1" parent="2nq4a87pyCxHnOQXuyUR-161">
          <mxGeometry x="30" width="220" height="30" as="geometry">
            <mxRectangle width="220" height="30" as="alternateBounds" />
          </mxGeometry>
        </mxCell>
        <mxCell id="2nq4a87pyCxHnOQXuyUR-173" value="BusinessTrip" style="shape=table;startSize=30;container=1;collapsible=1;childLayout=tableLayout;fixedRows=1;rowLines=0;fontStyle=1;align=center;resizeLast=1;fontSize=16;" vertex="1" parent="1">
          <mxGeometry x="619" y="1347" width="250" height="195.3750343322754" as="geometry" />
        </mxCell>
        <mxCell id="2nq4a87pyCxHnOQXuyUR-174" value="" style="shape=partialRectangle;collapsible=0;dropTarget=0;pointerEvents=0;fillColor=none;points=[[0,0.5],[1,0.5]];portConstraint=eastwest;top=0;left=0;right=0;bottom=1;fontSize=16;" vertex="1" parent="2nq4a87pyCxHnOQXuyUR-173">
          <mxGeometry y="30" width="250" height="30" as="geometry" />
        </mxCell>
        <mxCell id="2nq4a87pyCxHnOQXuyUR-175" value="PK" style="shape=partialRectangle;overflow=hidden;connectable=0;fillColor=none;top=0;left=0;bottom=0;right=0;fontStyle=1;fontSize=16;" vertex="1" parent="2nq4a87pyCxHnOQXuyUR-174">
          <mxGeometry width="30" height="30" as="geometry">
            <mxRectangle width="30" height="30" as="alternateBounds" />
          </mxGeometry>
        </mxCell>
        <mxCell id="2nq4a87pyCxHnOQXuyUR-176" value="business_trip_id" style="shape=partialRectangle;overflow=hidden;connectable=0;fillColor=none;top=0;left=0;bottom=0;right=0;align=left;spacingLeft=6;fontStyle=5;fontSize=16;" vertex="1" parent="2nq4a87pyCxHnOQXuyUR-174">
          <mxGeometry x="30" width="220" height="30" as="geometry">
            <mxRectangle width="220" height="30" as="alternateBounds" />
          </mxGeometry>
        </mxCell>
        <mxCell id="2nq4a87pyCxHnOQXuyUR-177" value="" style="shape=partialRectangle;collapsible=0;dropTarget=0;pointerEvents=0;fillColor=none;points=[[0,0.5],[1,0.5]];portConstraint=eastwest;top=0;left=0;right=0;bottom=0;fontSize=16;" vertex="1" parent="2nq4a87pyCxHnOQXuyUR-173">
          <mxGeometry y="60" width="250" height="36" as="geometry" />
        </mxCell>
        <mxCell id="2nq4a87pyCxHnOQXuyUR-178" value="" style="shape=partialRectangle;overflow=hidden;connectable=0;fillColor=none;top=0;left=0;bottom=0;right=0;fontSize=16;" vertex="1" parent="2nq4a87pyCxHnOQXuyUR-177">
          <mxGeometry width="30" height="36" as="geometry">
            <mxRectangle width="30" height="36" as="alternateBounds" />
          </mxGeometry>
        </mxCell>
        <mxCell id="2nq4a87pyCxHnOQXuyUR-179" value="start" style="shape=partialRectangle;overflow=hidden;connectable=0;fillColor=none;top=0;left=0;bottom=0;right=0;align=left;spacingLeft=6;fontSize=16;" vertex="1" parent="2nq4a87pyCxHnOQXuyUR-177">
          <mxGeometry x="30" width="220" height="36" as="geometry">
            <mxRectangle width="220" height="36" as="alternateBounds" />
          </mxGeometry>
        </mxCell>
        <mxCell id="2nq4a87pyCxHnOQXuyUR-180" style="shape=partialRectangle;collapsible=0;dropTarget=0;pointerEvents=0;fillColor=none;points=[[0,0.5],[1,0.5]];portConstraint=eastwest;top=0;left=0;right=0;bottom=0;fontSize=16;" vertex="1" parent="2nq4a87pyCxHnOQXuyUR-173">
          <mxGeometry y="96" width="250" height="30" as="geometry" />
        </mxCell>
        <mxCell id="2nq4a87pyCxHnOQXuyUR-181" style="shape=partialRectangle;overflow=hidden;connectable=0;fillColor=none;top=0;left=0;bottom=0;right=0;fontSize=16;" vertex="1" parent="2nq4a87pyCxHnOQXuyUR-180">
          <mxGeometry width="30" height="30" as="geometry">
            <mxRectangle width="30" height="30" as="alternateBounds" />
          </mxGeometry>
        </mxCell>
        <mxCell id="2nq4a87pyCxHnOQXuyUR-182" value="end" style="shape=partialRectangle;overflow=hidden;connectable=0;fillColor=none;top=0;left=0;bottom=0;right=0;align=left;spacingLeft=6;fontSize=16;" vertex="1" parent="2nq4a87pyCxHnOQXuyUR-180">
          <mxGeometry x="30" width="220" height="30" as="geometry">
            <mxRectangle width="220" height="30" as="alternateBounds" />
          </mxGeometry>
        </mxCell>
        <mxCell id="2nq4a87pyCxHnOQXuyUR-183" style="shape=partialRectangle;collapsible=0;dropTarget=0;pointerEvents=0;fillColor=none;points=[[0,0.5],[1,0.5]];portConstraint=eastwest;top=0;left=0;right=0;bottom=0;fontSize=16;" vertex="1" parent="2nq4a87pyCxHnOQXuyUR-173">
          <mxGeometry y="126" width="250" height="30" as="geometry" />
        </mxCell>
        <mxCell id="2nq4a87pyCxHnOQXuyUR-184" style="shape=partialRectangle;overflow=hidden;connectable=0;fillColor=none;top=0;left=0;bottom=0;right=0;fontSize=16;" vertex="1" parent="2nq4a87pyCxHnOQXuyUR-183">
          <mxGeometry width="30" height="30" as="geometry">
            <mxRectangle width="30" height="30" as="alternateBounds" />
          </mxGeometry>
        </mxCell>
        <mxCell id="2nq4a87pyCxHnOQXuyUR-185" value="order" style="shape=partialRectangle;overflow=hidden;connectable=0;fillColor=none;top=0;left=0;bottom=0;right=0;align=left;spacingLeft=6;fontSize=16;" vertex="1" parent="2nq4a87pyCxHnOQXuyUR-183">
          <mxGeometry x="30" width="220" height="30" as="geometry">
            <mxRectangle width="220" height="30" as="alternateBounds" />
          </mxGeometry>
        </mxCell>
        <mxCell id="2nq4a87pyCxHnOQXuyUR-186" style="shape=partialRectangle;collapsible=0;dropTarget=0;pointerEvents=0;fillColor=none;points=[[0,0.5],[1,0.5]];portConstraint=eastwest;top=0;left=0;right=0;bottom=0;fontSize=16;" vertex="1" parent="2nq4a87pyCxHnOQXuyUR-173">
          <mxGeometry y="156" width="250" height="30" as="geometry" />
        </mxCell>
        <mxCell id="2nq4a87pyCxHnOQXuyUR-187" style="shape=partialRectangle;overflow=hidden;connectable=0;fillColor=none;top=0;left=0;bottom=0;right=0;fontSize=16;" vertex="1" parent="2nq4a87pyCxHnOQXuyUR-186">
          <mxGeometry width="30" height="30" as="geometry">
            <mxRectangle width="30" height="30" as="alternateBounds" />
          </mxGeometry>
        </mxCell>
        <mxCell id="2nq4a87pyCxHnOQXuyUR-188" value="place" style="shape=partialRectangle;overflow=hidden;connectable=0;fillColor=none;top=0;left=0;bottom=0;right=0;align=left;spacingLeft=6;fontSize=16;" vertex="1" parent="2nq4a87pyCxHnOQXuyUR-186">
          <mxGeometry x="30" width="220" height="30" as="geometry">
            <mxRectangle width="220" height="30" as="alternateBounds" />
          </mxGeometry>
        </mxCell>
        <mxCell id="2nq4a87pyCxHnOQXuyUR-189" value="Department" style="shape=table;startSize=30;container=1;collapsible=1;childLayout=tableLayout;fixedRows=1;rowLines=0;fontStyle=1;align=center;resizeLast=1;fontSize=16;" vertex="1" parent="1">
          <mxGeometry x="314" y="1341.0000000000002" width="250" height="95.61057193462659" as="geometry" />
        </mxCell>
        <mxCell id="2nq4a87pyCxHnOQXuyUR-190" value="" style="shape=partialRectangle;collapsible=0;dropTarget=0;pointerEvents=0;fillColor=none;points=[[0,0.5],[1,0.5]];portConstraint=eastwest;top=0;left=0;right=0;bottom=1;fontSize=16;" vertex="1" parent="2nq4a87pyCxHnOQXuyUR-189">
          <mxGeometry y="30" width="250" height="30" as="geometry" />
        </mxCell>
        <mxCell id="2nq4a87pyCxHnOQXuyUR-191" value="PK" style="shape=partialRectangle;overflow=hidden;connectable=0;fillColor=none;top=0;left=0;bottom=0;right=0;fontStyle=1;fontSize=16;" vertex="1" parent="2nq4a87pyCxHnOQXuyUR-190">
          <mxGeometry width="30" height="30" as="geometry">
            <mxRectangle width="30" height="30" as="alternateBounds" />
          </mxGeometry>
        </mxCell>
        <mxCell id="2nq4a87pyCxHnOQXuyUR-192" value="department_id" style="shape=partialRectangle;overflow=hidden;connectable=0;fillColor=none;top=0;left=0;bottom=0;right=0;align=left;spacingLeft=6;fontStyle=5;fontSize=16;" vertex="1" parent="2nq4a87pyCxHnOQXuyUR-190">
          <mxGeometry x="30" width="220" height="30" as="geometry">
            <mxRectangle width="220" height="30" as="alternateBounds" />
          </mxGeometry>
        </mxCell>
        <mxCell id="2nq4a87pyCxHnOQXuyUR-193" value="" style="shape=partialRectangle;collapsible=0;dropTarget=0;pointerEvents=0;fillColor=none;points=[[0,0.5],[1,0.5]];portConstraint=eastwest;top=0;left=0;right=0;bottom=0;fontSize=16;" vertex="1" parent="2nq4a87pyCxHnOQXuyUR-189">
          <mxGeometry y="60" width="250" height="26" as="geometry" />
        </mxCell>
        <mxCell id="2nq4a87pyCxHnOQXuyUR-194" value="" style="shape=partialRectangle;overflow=hidden;connectable=0;fillColor=none;top=0;left=0;bottom=0;right=0;fontSize=16;" vertex="1" parent="2nq4a87pyCxHnOQXuyUR-193">
          <mxGeometry width="30" height="26" as="geometry">
            <mxRectangle width="30" height="26" as="alternateBounds" />
          </mxGeometry>
        </mxCell>
        <mxCell id="2nq4a87pyCxHnOQXuyUR-195" value="name" style="shape=partialRectangle;overflow=hidden;connectable=0;fillColor=none;top=0;left=0;bottom=0;right=0;align=left;spacingLeft=6;fontSize=16;" vertex="1" parent="2nq4a87pyCxHnOQXuyUR-193">
          <mxGeometry x="30" width="220" height="26" as="geometry">
            <mxRectangle width="220" height="26" as="alternateBounds" />
          </mxGeometry>
        </mxCell>
        <mxCell id="2nq4a87pyCxHnOQXuyUR-196" value="Report" style="shape=table;startSize=30;container=1;collapsible=1;childLayout=tableLayout;fixedRows=1;rowLines=0;fontStyle=1;align=center;resizeLast=1;fontSize=16;" vertex="1" parent="1">
          <mxGeometry x="1350" y="972.0000000000001" width="250" height="205.2980032700758" as="geometry" />
        </mxCell>
        <mxCell id="2nq4a87pyCxHnOQXuyUR-197" value="" style="shape=partialRectangle;collapsible=0;dropTarget=0;pointerEvents=0;fillColor=none;points=[[0,0.5],[1,0.5]];portConstraint=eastwest;top=0;left=0;right=0;bottom=1;fontSize=16;" vertex="1" parent="2nq4a87pyCxHnOQXuyUR-196">
          <mxGeometry y="30" width="250" height="30" as="geometry" />
        </mxCell>
        <mxCell id="2nq4a87pyCxHnOQXuyUR-198" value="PK" style="shape=partialRectangle;overflow=hidden;connectable=0;fillColor=none;top=0;left=0;bottom=0;right=0;fontStyle=1;fontSize=16;" vertex="1" parent="2nq4a87pyCxHnOQXuyUR-197">
          <mxGeometry width="30" height="30" as="geometry">
            <mxRectangle width="30" height="30" as="alternateBounds" />
          </mxGeometry>
        </mxCell>
        <mxCell id="2nq4a87pyCxHnOQXuyUR-199" value="report_id" style="shape=partialRectangle;overflow=hidden;connectable=0;fillColor=none;top=0;left=0;bottom=0;right=0;align=left;spacingLeft=6;fontStyle=5;fontSize=16;" vertex="1" parent="2nq4a87pyCxHnOQXuyUR-197">
          <mxGeometry x="30" width="220" height="30" as="geometry">
            <mxRectangle width="220" height="30" as="alternateBounds" />
          </mxGeometry>
        </mxCell>
        <mxCell id="2nq4a87pyCxHnOQXuyUR-200" value="" style="shape=partialRectangle;collapsible=0;dropTarget=0;pointerEvents=0;fillColor=none;points=[[0,0.5],[1,0.5]];portConstraint=eastwest;top=0;left=0;right=0;bottom=0;fontSize=16;" vertex="1" parent="2nq4a87pyCxHnOQXuyUR-196">
          <mxGeometry y="60" width="250" height="32" as="geometry" />
        </mxCell>
        <mxCell id="2nq4a87pyCxHnOQXuyUR-201" value="FK" style="shape=partialRectangle;overflow=hidden;connectable=0;fillColor=none;top=0;left=0;bottom=0;right=0;fontSize=16;" vertex="1" parent="2nq4a87pyCxHnOQXuyUR-200">
          <mxGeometry width="30" height="32" as="geometry">
            <mxRectangle width="30" height="32" as="alternateBounds" />
          </mxGeometry>
        </mxCell>
        <mxCell id="2nq4a87pyCxHnOQXuyUR-202" value="user_id" style="shape=partialRectangle;overflow=hidden;connectable=0;fillColor=none;top=0;left=0;bottom=0;right=0;align=left;spacingLeft=6;fontSize=16;" vertex="1" parent="2nq4a87pyCxHnOQXuyUR-200">
          <mxGeometry x="30" width="220" height="32" as="geometry">
            <mxRectangle width="220" height="32" as="alternateBounds" />
          </mxGeometry>
        </mxCell>
        <mxCell id="2nq4a87pyCxHnOQXuyUR-212" style="shape=partialRectangle;collapsible=0;dropTarget=0;pointerEvents=0;fillColor=none;points=[[0,0.5],[1,0.5]];portConstraint=eastwest;top=0;left=0;right=0;bottom=0;fontSize=16;" vertex="1" parent="2nq4a87pyCxHnOQXuyUR-196">
          <mxGeometry y="92" width="250" height="26" as="geometry" />
        </mxCell>
        <mxCell id="2nq4a87pyCxHnOQXuyUR-213" style="shape=partialRectangle;overflow=hidden;connectable=0;fillColor=none;top=0;left=0;bottom=0;right=0;fontSize=16;" vertex="1" parent="2nq4a87pyCxHnOQXuyUR-212">
          <mxGeometry width="30" height="26" as="geometry">
            <mxRectangle width="30" height="26" as="alternateBounds" />
          </mxGeometry>
        </mxCell>
        <mxCell id="2nq4a87pyCxHnOQXuyUR-214" value="date" style="shape=partialRectangle;overflow=hidden;connectable=0;fillColor=none;top=0;left=0;bottom=0;right=0;align=left;spacingLeft=6;fontSize=16;" vertex="1" parent="2nq4a87pyCxHnOQXuyUR-212">
          <mxGeometry x="30" width="220" height="26" as="geometry">
            <mxRectangle width="220" height="26" as="alternateBounds" />
          </mxGeometry>
        </mxCell>
        <mxCell id="2nq4a87pyCxHnOQXuyUR-209" style="shape=partialRectangle;collapsible=0;dropTarget=0;pointerEvents=0;fillColor=none;points=[[0,0.5],[1,0.5]];portConstraint=eastwest;top=0;left=0;right=0;bottom=0;fontSize=16;" vertex="1" parent="2nq4a87pyCxHnOQXuyUR-196">
          <mxGeometry y="118" width="250" height="26" as="geometry" />
        </mxCell>
        <mxCell id="2nq4a87pyCxHnOQXuyUR-210" style="shape=partialRectangle;overflow=hidden;connectable=0;fillColor=none;top=0;left=0;bottom=0;right=0;fontSize=16;" vertex="1" parent="2nq4a87pyCxHnOQXuyUR-209">
          <mxGeometry width="30" height="26" as="geometry">
            <mxRectangle width="30" height="26" as="alternateBounds" />
          </mxGeometry>
        </mxCell>
        <mxCell id="2nq4a87pyCxHnOQXuyUR-211" value="creation_time" style="shape=partialRectangle;overflow=hidden;connectable=0;fillColor=none;top=0;left=0;bottom=0;right=0;align=left;spacingLeft=6;fontSize=16;" vertex="1" parent="2nq4a87pyCxHnOQXuyUR-209">
          <mxGeometry x="30" width="220" height="26" as="geometry">
            <mxRectangle width="220" height="26" as="alternateBounds" />
          </mxGeometry>
        </mxCell>
        <mxCell id="2nq4a87pyCxHnOQXuyUR-206" style="shape=partialRectangle;collapsible=0;dropTarget=0;pointerEvents=0;fillColor=none;points=[[0,0.5],[1,0.5]];portConstraint=eastwest;top=0;left=0;right=0;bottom=0;fontSize=16;" vertex="1" parent="2nq4a87pyCxHnOQXuyUR-196">
          <mxGeometry y="144" width="250" height="26" as="geometry" />
        </mxCell>
        <mxCell id="2nq4a87pyCxHnOQXuyUR-207" style="shape=partialRectangle;overflow=hidden;connectable=0;fillColor=none;top=0;left=0;bottom=0;right=0;fontSize=16;" vertex="1" parent="2nq4a87pyCxHnOQXuyUR-206">
          <mxGeometry width="30" height="26" as="geometry">
            <mxRectangle width="30" height="26" as="alternateBounds" />
          </mxGeometry>
        </mxCell>
        <mxCell id="2nq4a87pyCxHnOQXuyUR-208" value="start_working_day" style="shape=partialRectangle;overflow=hidden;connectable=0;fillColor=none;top=0;left=0;bottom=0;right=0;align=left;spacingLeft=6;fontSize=16;" vertex="1" parent="2nq4a87pyCxHnOQXuyUR-206">
          <mxGeometry x="30" width="220" height="26" as="geometry">
            <mxRectangle width="220" height="26" as="alternateBounds" />
          </mxGeometry>
        </mxCell>
        <mxCell id="2nq4a87pyCxHnOQXuyUR-203" style="shape=partialRectangle;collapsible=0;dropTarget=0;pointerEvents=0;fillColor=none;points=[[0,0.5],[1,0.5]];portConstraint=eastwest;top=0;left=0;right=0;bottom=0;fontSize=16;" vertex="1" parent="2nq4a87pyCxHnOQXuyUR-196">
          <mxGeometry y="170" width="250" height="26" as="geometry" />
        </mxCell>
        <mxCell id="2nq4a87pyCxHnOQXuyUR-204" style="shape=partialRectangle;overflow=hidden;connectable=0;fillColor=none;top=0;left=0;bottom=0;right=0;fontSize=16;" vertex="1" parent="2nq4a87pyCxHnOQXuyUR-203">
          <mxGeometry width="30" height="26" as="geometry">
            <mxRectangle width="30" height="26" as="alternateBounds" />
          </mxGeometry>
        </mxCell>
        <mxCell id="2nq4a87pyCxHnOQXuyUR-205" value="end_working_day" style="shape=partialRectangle;overflow=hidden;connectable=0;fillColor=none;top=0;left=0;bottom=0;right=0;align=left;spacingLeft=6;fontSize=16;" vertex="1" parent="2nq4a87pyCxHnOQXuyUR-203">
          <mxGeometry x="30" width="220" height="26" as="geometry">
            <mxRectangle width="220" height="26" as="alternateBounds" />
          </mxGeometry>
        </mxCell>
        <mxCell id="2nq4a87pyCxHnOQXuyUR-215" value="ReportItem" style="shape=table;startSize=30;container=1;collapsible=1;childLayout=tableLayout;fixedRows=1;rowLines=0;fontStyle=1;align=center;resizeLast=1;fontSize=16;" vertex="1" parent="1">
          <mxGeometry x="1665" y="939.1600000000001" width="250" height="231.2980032700758" as="geometry" />
        </mxCell>
        <mxCell id="2nq4a87pyCxHnOQXuyUR-216" value="" style="shape=partialRectangle;collapsible=0;dropTarget=0;pointerEvents=0;fillColor=none;points=[[0,0.5],[1,0.5]];portConstraint=eastwest;top=0;left=0;right=0;bottom=1;fontSize=16;" vertex="1" parent="2nq4a87pyCxHnOQXuyUR-215">
          <mxGeometry y="30" width="250" height="30" as="geometry" />
        </mxCell>
        <mxCell id="2nq4a87pyCxHnOQXuyUR-217" value="PK" style="shape=partialRectangle;overflow=hidden;connectable=0;fillColor=none;top=0;left=0;bottom=0;right=0;fontStyle=1;fontSize=16;" vertex="1" parent="2nq4a87pyCxHnOQXuyUR-216">
          <mxGeometry width="30" height="30" as="geometry">
            <mxRectangle width="30" height="30" as="alternateBounds" />
          </mxGeometry>
        </mxCell>
        <mxCell id="2nq4a87pyCxHnOQXuyUR-218" value="report_item_id" style="shape=partialRectangle;overflow=hidden;connectable=0;fillColor=none;top=0;left=0;bottom=0;right=0;align=left;spacingLeft=6;fontStyle=5;fontSize=16;" vertex="1" parent="2nq4a87pyCxHnOQXuyUR-216">
          <mxGeometry x="30" width="220" height="30" as="geometry">
            <mxRectangle width="220" height="30" as="alternateBounds" />
          </mxGeometry>
        </mxCell>
        <mxCell id="2nq4a87pyCxHnOQXuyUR-219" value="" style="shape=partialRectangle;collapsible=0;dropTarget=0;pointerEvents=0;fillColor=none;points=[[0,0.5],[1,0.5]];portConstraint=eastwest;top=0;left=0;right=0;bottom=0;fontSize=16;" vertex="1" parent="2nq4a87pyCxHnOQXuyUR-215">
          <mxGeometry y="60" width="250" height="32" as="geometry" />
        </mxCell>
        <mxCell id="2nq4a87pyCxHnOQXuyUR-220" value="FK" style="shape=partialRectangle;overflow=hidden;connectable=0;fillColor=none;top=0;left=0;bottom=0;right=0;fontSize=16;" vertex="1" parent="2nq4a87pyCxHnOQXuyUR-219">
          <mxGeometry width="30" height="32" as="geometry">
            <mxRectangle width="30" height="32" as="alternateBounds" />
          </mxGeometry>
        </mxCell>
        <mxCell id="2nq4a87pyCxHnOQXuyUR-221" value="report_id" style="shape=partialRectangle;overflow=hidden;connectable=0;fillColor=none;top=0;left=0;bottom=0;right=0;align=left;spacingLeft=6;fontSize=16;" vertex="1" parent="2nq4a87pyCxHnOQXuyUR-219">
          <mxGeometry x="30" width="220" height="32" as="geometry">
            <mxRectangle width="220" height="32" as="alternateBounds" />
          </mxGeometry>
        </mxCell>
        <mxCell id="2nq4a87pyCxHnOQXuyUR-222" style="shape=partialRectangle;collapsible=0;dropTarget=0;pointerEvents=0;fillColor=none;points=[[0,0.5],[1,0.5]];portConstraint=eastwest;top=0;left=0;right=0;bottom=0;fontSize=16;" vertex="1" parent="2nq4a87pyCxHnOQXuyUR-215">
          <mxGeometry y="92" width="250" height="26" as="geometry" />
        </mxCell>
        <mxCell id="2nq4a87pyCxHnOQXuyUR-223" value="FK" style="shape=partialRectangle;overflow=hidden;connectable=0;fillColor=none;top=0;left=0;bottom=0;right=0;fontSize=16;" vertex="1" parent="2nq4a87pyCxHnOQXuyUR-222">
          <mxGeometry width="30" height="26" as="geometry">
            <mxRectangle width="30" height="26" as="alternateBounds" />
          </mxGeometry>
        </mxCell>
        <mxCell id="2nq4a87pyCxHnOQXuyUR-224" value="task_id" style="shape=partialRectangle;overflow=hidden;connectable=0;fillColor=none;top=0;left=0;bottom=0;right=0;align=left;spacingLeft=6;fontSize=16;" vertex="1" parent="2nq4a87pyCxHnOQXuyUR-222">
          <mxGeometry x="30" width="220" height="26" as="geometry">
            <mxRectangle width="220" height="26" as="alternateBounds" />
          </mxGeometry>
        </mxCell>
        <mxCell id="2nq4a87pyCxHnOQXuyUR-225" style="shape=partialRectangle;collapsible=0;dropTarget=0;pointerEvents=0;fillColor=none;points=[[0,0.5],[1,0.5]];portConstraint=eastwest;top=0;left=0;right=0;bottom=0;fontSize=16;" vertex="1" parent="2nq4a87pyCxHnOQXuyUR-215">
          <mxGeometry y="118" width="250" height="26" as="geometry" />
        </mxCell>
        <mxCell id="2nq4a87pyCxHnOQXuyUR-226" value="FK" style="shape=partialRectangle;overflow=hidden;connectable=0;fillColor=none;top=0;left=0;bottom=0;right=0;fontSize=16;" vertex="1" parent="2nq4a87pyCxHnOQXuyUR-225">
          <mxGeometry width="30" height="26" as="geometry">
            <mxRectangle width="30" height="26" as="alternateBounds" />
          </mxGeometry>
        </mxCell>
        <mxCell id="2nq4a87pyCxHnOQXuyUR-227" value="report_item_type_id" style="shape=partialRectangle;overflow=hidden;connectable=0;fillColor=none;top=0;left=0;bottom=0;right=0;align=left;spacingLeft=6;fontSize=16;" vertex="1" parent="2nq4a87pyCxHnOQXuyUR-225">
          <mxGeometry x="30" width="220" height="26" as="geometry">
            <mxRectangle width="220" height="26" as="alternateBounds" />
          </mxGeometry>
        </mxCell>
        <mxCell id="2nq4a87pyCxHnOQXuyUR-228" style="shape=partialRectangle;collapsible=0;dropTarget=0;pointerEvents=0;fillColor=none;points=[[0,0.5],[1,0.5]];portConstraint=eastwest;top=0;left=0;right=0;bottom=0;fontSize=16;" vertex="1" parent="2nq4a87pyCxHnOQXuyUR-215">
          <mxGeometry y="144" width="250" height="26" as="geometry" />
        </mxCell>
        <mxCell id="2nq4a87pyCxHnOQXuyUR-229" style="shape=partialRectangle;overflow=hidden;connectable=0;fillColor=none;top=0;left=0;bottom=0;right=0;fontSize=16;" vertex="1" parent="2nq4a87pyCxHnOQXuyUR-228">
          <mxGeometry width="30" height="26" as="geometry">
            <mxRectangle width="30" height="26" as="alternateBounds" />
          </mxGeometry>
        </mxCell>
        <mxCell id="2nq4a87pyCxHnOQXuyUR-230" value="start" style="shape=partialRectangle;overflow=hidden;connectable=0;fillColor=none;top=0;left=0;bottom=0;right=0;align=left;spacingLeft=6;fontSize=16;" vertex="1" parent="2nq4a87pyCxHnOQXuyUR-228">
          <mxGeometry x="30" width="220" height="26" as="geometry">
            <mxRectangle width="220" height="26" as="alternateBounds" />
          </mxGeometry>
        </mxCell>
        <mxCell id="2nq4a87pyCxHnOQXuyUR-231" style="shape=partialRectangle;collapsible=0;dropTarget=0;pointerEvents=0;fillColor=none;points=[[0,0.5],[1,0.5]];portConstraint=eastwest;top=0;left=0;right=0;bottom=0;fontSize=16;" vertex="1" parent="2nq4a87pyCxHnOQXuyUR-215">
          <mxGeometry y="170" width="250" height="26" as="geometry" />
        </mxCell>
        <mxCell id="2nq4a87pyCxHnOQXuyUR-232" style="shape=partialRectangle;overflow=hidden;connectable=0;fillColor=none;top=0;left=0;bottom=0;right=0;fontSize=16;" vertex="1" parent="2nq4a87pyCxHnOQXuyUR-231">
          <mxGeometry width="30" height="26" as="geometry">
            <mxRectangle width="30" height="26" as="alternateBounds" />
          </mxGeometry>
        </mxCell>
        <mxCell id="2nq4a87pyCxHnOQXuyUR-233" value="end" style="shape=partialRectangle;overflow=hidden;connectable=0;fillColor=none;top=0;left=0;bottom=0;right=0;align=left;spacingLeft=6;fontSize=16;" vertex="1" parent="2nq4a87pyCxHnOQXuyUR-231">
          <mxGeometry x="30" width="220" height="26" as="geometry">
            <mxRectangle width="220" height="26" as="alternateBounds" />
          </mxGeometry>
        </mxCell>
        <mxCell id="2nq4a87pyCxHnOQXuyUR-234" style="shape=partialRectangle;collapsible=0;dropTarget=0;pointerEvents=0;fillColor=none;points=[[0,0.5],[1,0.5]];portConstraint=eastwest;top=0;left=0;right=0;bottom=0;fontSize=16;" vertex="1" parent="2nq4a87pyCxHnOQXuyUR-215">
          <mxGeometry y="196" width="250" height="26" as="geometry" />
        </mxCell>
        <mxCell id="2nq4a87pyCxHnOQXuyUR-235" style="shape=partialRectangle;overflow=hidden;connectable=0;fillColor=none;top=0;left=0;bottom=0;right=0;fontSize=16;" vertex="1" parent="2nq4a87pyCxHnOQXuyUR-234">
          <mxGeometry width="30" height="26" as="geometry">
            <mxRectangle width="30" height="26" as="alternateBounds" />
          </mxGeometry>
        </mxCell>
        <mxCell id="2nq4a87pyCxHnOQXuyUR-236" value="text" style="shape=partialRectangle;overflow=hidden;connectable=0;fillColor=none;top=0;left=0;bottom=0;right=0;align=left;spacingLeft=6;fontSize=16;" vertex="1" parent="2nq4a87pyCxHnOQXuyUR-234">
          <mxGeometry x="30" width="220" height="26" as="geometry">
            <mxRectangle width="220" height="26" as="alternateBounds" />
          </mxGeometry>
        </mxCell>
        <mxCell id="2nq4a87pyCxHnOQXuyUR-237" value="ReportItemType" style="shape=table;startSize=30;container=1;collapsible=1;childLayout=tableLayout;fixedRows=1;rowLines=0;fontStyle=1;align=center;resizeLast=1;fontSize=16;" vertex="1" parent="1">
          <mxGeometry x="2000" y="939.1600000000001" width="250" height="121.61057193462659" as="geometry" />
        </mxCell>
        <mxCell id="2nq4a87pyCxHnOQXuyUR-238" value="" style="shape=partialRectangle;collapsible=0;dropTarget=0;pointerEvents=0;fillColor=none;points=[[0,0.5],[1,0.5]];portConstraint=eastwest;top=0;left=0;right=0;bottom=1;fontSize=16;" vertex="1" parent="2nq4a87pyCxHnOQXuyUR-237">
          <mxGeometry y="30" width="250" height="30" as="geometry" />
        </mxCell>
        <mxCell id="2nq4a87pyCxHnOQXuyUR-239" value="PK" style="shape=partialRectangle;overflow=hidden;connectable=0;fillColor=none;top=0;left=0;bottom=0;right=0;fontStyle=1;fontSize=16;" vertex="1" parent="2nq4a87pyCxHnOQXuyUR-238">
          <mxGeometry width="30" height="30" as="geometry">
            <mxRectangle width="30" height="30" as="alternateBounds" />
          </mxGeometry>
        </mxCell>
        <mxCell id="2nq4a87pyCxHnOQXuyUR-240" value="report_item_type_id" style="shape=partialRectangle;overflow=hidden;connectable=0;fillColor=none;top=0;left=0;bottom=0;right=0;align=left;spacingLeft=6;fontStyle=5;fontSize=16;" vertex="1" parent="2nq4a87pyCxHnOQXuyUR-238">
          <mxGeometry x="30" width="220" height="30" as="geometry">
            <mxRectangle width="220" height="30" as="alternateBounds" />
          </mxGeometry>
        </mxCell>
        <mxCell id="2nq4a87pyCxHnOQXuyUR-241" value="" style="shape=partialRectangle;collapsible=0;dropTarget=0;pointerEvents=0;fillColor=none;points=[[0,0.5],[1,0.5]];portConstraint=eastwest;top=0;left=0;right=0;bottom=0;fontSize=16;" vertex="1" parent="2nq4a87pyCxHnOQXuyUR-237">
          <mxGeometry y="60" width="250" height="26" as="geometry" />
        </mxCell>
        <mxCell id="2nq4a87pyCxHnOQXuyUR-242" value="" style="shape=partialRectangle;overflow=hidden;connectable=0;fillColor=none;top=0;left=0;bottom=0;right=0;fontSize=16;" vertex="1" parent="2nq4a87pyCxHnOQXuyUR-241">
          <mxGeometry width="30" height="26" as="geometry">
            <mxRectangle width="30" height="26" as="alternateBounds" />
          </mxGeometry>
        </mxCell>
        <mxCell id="2nq4a87pyCxHnOQXuyUR-243" value="name" style="shape=partialRectangle;overflow=hidden;connectable=0;fillColor=none;top=0;left=0;bottom=0;right=0;align=left;spacingLeft=6;fontSize=16;" vertex="1" parent="2nq4a87pyCxHnOQXuyUR-241">
          <mxGeometry x="30" width="220" height="26" as="geometry">
            <mxRectangle width="220" height="26" as="alternateBounds" />
          </mxGeometry>
        </mxCell>
        <mxCell id="2nq4a87pyCxHnOQXuyUR-244" style="shape=partialRectangle;collapsible=0;dropTarget=0;pointerEvents=0;fillColor=none;points=[[0,0.5],[1,0.5]];portConstraint=eastwest;top=0;left=0;right=0;bottom=0;fontSize=16;" vertex="1" parent="2nq4a87pyCxHnOQXuyUR-237">
          <mxGeometry y="86" width="250" height="26" as="geometry" />
        </mxCell>
        <mxCell id="2nq4a87pyCxHnOQXuyUR-245" style="shape=partialRectangle;overflow=hidden;connectable=0;fillColor=none;top=0;left=0;bottom=0;right=0;fontSize=16;" vertex="1" parent="2nq4a87pyCxHnOQXuyUR-244">
          <mxGeometry width="30" height="26" as="geometry">
            <mxRectangle width="30" height="26" as="alternateBounds" />
          </mxGeometry>
        </mxCell>
        <mxCell id="2nq4a87pyCxHnOQXuyUR-246" value="is_working_time" style="shape=partialRectangle;overflow=hidden;connectable=0;fillColor=none;top=0;left=0;bottom=0;right=0;align=left;spacingLeft=6;fontSize=16;" vertex="1" parent="2nq4a87pyCxHnOQXuyUR-244">
          <mxGeometry x="30" width="220" height="26" as="geometry">
            <mxRectangle width="220" height="26" as="alternateBounds" />
          </mxGeometry>
        </mxCell>
        <mxCell id="2nq4a87pyCxHnOQXuyUR-247" value="WorkSchedule" style="shape=table;startSize=30;container=1;collapsible=1;childLayout=tableLayout;fixedRows=1;rowLines=0;fontStyle=1;align=center;resizeLast=1;fontSize=16;" vertex="1" parent="1">
          <mxGeometry x="1192" y="1355" width="250" height="199.6105719346266" as="geometry" />
        </mxCell>
        <mxCell id="2nq4a87pyCxHnOQXuyUR-248" value="" style="shape=partialRectangle;collapsible=0;dropTarget=0;pointerEvents=0;fillColor=none;points=[[0,0.5],[1,0.5]];portConstraint=eastwest;top=0;left=0;right=0;bottom=1;fontSize=16;" vertex="1" parent="2nq4a87pyCxHnOQXuyUR-247">
          <mxGeometry y="30" width="250" height="30" as="geometry" />
        </mxCell>
        <mxCell id="2nq4a87pyCxHnOQXuyUR-249" value="PK" style="shape=partialRectangle;overflow=hidden;connectable=0;fillColor=none;top=0;left=0;bottom=0;right=0;fontStyle=1;fontSize=16;" vertex="1" parent="2nq4a87pyCxHnOQXuyUR-248">
          <mxGeometry width="30" height="30" as="geometry">
            <mxRectangle width="30" height="30" as="alternateBounds" />
          </mxGeometry>
        </mxCell>
        <mxCell id="2nq4a87pyCxHnOQXuyUR-250" value="work_schedule_id" style="shape=partialRectangle;overflow=hidden;connectable=0;fillColor=none;top=0;left=0;bottom=0;right=0;align=left;spacingLeft=6;fontStyle=5;fontSize=16;" vertex="1" parent="2nq4a87pyCxHnOQXuyUR-248">
          <mxGeometry x="30" width="220" height="30" as="geometry">
            <mxRectangle width="220" height="30" as="alternateBounds" />
          </mxGeometry>
        </mxCell>
        <mxCell id="2nq4a87pyCxHnOQXuyUR-251" value="" style="shape=partialRectangle;collapsible=0;dropTarget=0;pointerEvents=0;fillColor=none;points=[[0,0.5],[1,0.5]];portConstraint=eastwest;top=0;left=0;right=0;bottom=0;fontSize=16;" vertex="1" parent="2nq4a87pyCxHnOQXuyUR-247">
          <mxGeometry y="60" width="250" height="26" as="geometry" />
        </mxCell>
        <mxCell id="2nq4a87pyCxHnOQXuyUR-252" value="" style="shape=partialRectangle;overflow=hidden;connectable=0;fillColor=none;top=0;left=0;bottom=0;right=0;fontSize=16;" vertex="1" parent="2nq4a87pyCxHnOQXuyUR-251">
          <mxGeometry width="30" height="26" as="geometry">
            <mxRectangle width="30" height="26" as="alternateBounds" />
          </mxGeometry>
        </mxCell>
        <mxCell id="2nq4a87pyCxHnOQXuyUR-253" value="start" style="shape=partialRectangle;overflow=hidden;connectable=0;fillColor=none;top=0;left=0;bottom=0;right=0;align=left;spacingLeft=6;fontSize=16;" vertex="1" parent="2nq4a87pyCxHnOQXuyUR-251">
          <mxGeometry x="30" width="220" height="26" as="geometry">
            <mxRectangle width="220" height="26" as="alternateBounds" />
          </mxGeometry>
        </mxCell>
        <mxCell id="2nq4a87pyCxHnOQXuyUR-254" style="shape=partialRectangle;collapsible=0;dropTarget=0;pointerEvents=0;fillColor=none;points=[[0,0.5],[1,0.5]];portConstraint=eastwest;top=0;left=0;right=0;bottom=0;fontSize=16;" vertex="1" parent="2nq4a87pyCxHnOQXuyUR-247">
          <mxGeometry y="86" width="250" height="26" as="geometry" />
        </mxCell>
        <mxCell id="2nq4a87pyCxHnOQXuyUR-255" style="shape=partialRectangle;overflow=hidden;connectable=0;fillColor=none;top=0;left=0;bottom=0;right=0;fontSize=16;" vertex="1" parent="2nq4a87pyCxHnOQXuyUR-254">
          <mxGeometry width="30" height="26" as="geometry">
            <mxRectangle width="30" height="26" as="alternateBounds" />
          </mxGeometry>
        </mxCell>
        <mxCell id="2nq4a87pyCxHnOQXuyUR-256" value="is_flexible_schedule" style="shape=partialRectangle;overflow=hidden;connectable=0;fillColor=none;top=0;left=0;bottom=0;right=0;align=left;spacingLeft=6;fontSize=16;" vertex="1" parent="2nq4a87pyCxHnOQXuyUR-254">
          <mxGeometry x="30" width="220" height="26" as="geometry">
            <mxRectangle width="220" height="26" as="alternateBounds" />
          </mxGeometry>
        </mxCell>
        <mxCell id="2nq4a87pyCxHnOQXuyUR-263" style="shape=partialRectangle;collapsible=0;dropTarget=0;pointerEvents=0;fillColor=none;points=[[0,0.5],[1,0.5]];portConstraint=eastwest;top=0;left=0;right=0;bottom=0;fontSize=16;" vertex="1" parent="2nq4a87pyCxHnOQXuyUR-247">
          <mxGeometry y="112" width="250" height="26" as="geometry" />
        </mxCell>
        <mxCell id="2nq4a87pyCxHnOQXuyUR-264" style="shape=partialRectangle;overflow=hidden;connectable=0;fillColor=none;top=0;left=0;bottom=0;right=0;fontSize=16;" vertex="1" parent="2nq4a87pyCxHnOQXuyUR-263">
          <mxGeometry width="30" height="26" as="geometry">
            <mxRectangle width="30" height="26" as="alternateBounds" />
          </mxGeometry>
        </mxCell>
        <mxCell id="2nq4a87pyCxHnOQXuyUR-265" value="num_of_working_seconds" style="shape=partialRectangle;overflow=hidden;connectable=0;fillColor=none;top=0;left=0;bottom=0;right=0;align=left;spacingLeft=6;fontSize=16;" vertex="1" parent="2nq4a87pyCxHnOQXuyUR-263">
          <mxGeometry x="30" width="220" height="26" as="geometry">
            <mxRectangle width="220" height="26" as="alternateBounds" />
          </mxGeometry>
        </mxCell>
        <mxCell id="2nq4a87pyCxHnOQXuyUR-260" style="shape=partialRectangle;collapsible=0;dropTarget=0;pointerEvents=0;fillColor=none;points=[[0,0.5],[1,0.5]];portConstraint=eastwest;top=0;left=0;right=0;bottom=0;fontSize=16;" vertex="1" parent="2nq4a87pyCxHnOQXuyUR-247">
          <mxGeometry y="138" width="250" height="26" as="geometry" />
        </mxCell>
        <mxCell id="2nq4a87pyCxHnOQXuyUR-261" style="shape=partialRectangle;overflow=hidden;connectable=0;fillColor=none;top=0;left=0;bottom=0;right=0;fontSize=16;" vertex="1" parent="2nq4a87pyCxHnOQXuyUR-260">
          <mxGeometry width="30" height="26" as="geometry">
            <mxRectangle width="30" height="26" as="alternateBounds" />
          </mxGeometry>
        </mxCell>
        <mxCell id="2nq4a87pyCxHnOQXuyUR-262" value="time_for_lunch" style="shape=partialRectangle;overflow=hidden;connectable=0;fillColor=none;top=0;left=0;bottom=0;right=0;align=left;spacingLeft=6;fontSize=16;" vertex="1" parent="2nq4a87pyCxHnOQXuyUR-260">
          <mxGeometry x="30" width="220" height="26" as="geometry">
            <mxRectangle width="220" height="26" as="alternateBounds" />
          </mxGeometry>
        </mxCell>
        <mxCell id="2nq4a87pyCxHnOQXuyUR-257" style="shape=partialRectangle;collapsible=0;dropTarget=0;pointerEvents=0;fillColor=none;points=[[0,0.5],[1,0.5]];portConstraint=eastwest;top=0;left=0;right=0;bottom=0;fontSize=16;" vertex="1" parent="2nq4a87pyCxHnOQXuyUR-247">
          <mxGeometry y="164" width="250" height="26" as="geometry" />
        </mxCell>
        <mxCell id="2nq4a87pyCxHnOQXuyUR-258" style="shape=partialRectangle;overflow=hidden;connectable=0;fillColor=none;top=0;left=0;bottom=0;right=0;fontSize=16;" vertex="1" parent="2nq4a87pyCxHnOQXuyUR-257">
          <mxGeometry width="30" height="26" as="geometry">
            <mxRectangle width="30" height="26" as="alternateBounds" />
          </mxGeometry>
        </mxCell>
        <mxCell id="2nq4a87pyCxHnOQXuyUR-259" value="lunch_duration_seconds" style="shape=partialRectangle;overflow=hidden;connectable=0;fillColor=none;top=0;left=0;bottom=0;right=0;align=left;spacingLeft=6;fontSize=16;" vertex="1" parent="2nq4a87pyCxHnOQXuyUR-257">
          <mxGeometry x="30" width="220" height="26" as="geometry">
            <mxRectangle width="220" height="26" as="alternateBounds" />
          </mxGeometry>
        </mxCell>
        <mxCell id="2nq4a87pyCxHnOQXuyUR-266" value="Holidays" style="shape=table;startSize=30;container=1;collapsible=1;childLayout=tableLayout;fixedRows=1;rowLines=0;fontStyle=1;align=center;resizeLast=1;fontSize=16;" vertex="1" parent="1">
          <mxGeometry x="370" y="663" width="250" height="173.6105719346266" as="geometry" />
        </mxCell>
        <mxCell id="2nq4a87pyCxHnOQXuyUR-267" value="" style="shape=partialRectangle;collapsible=0;dropTarget=0;pointerEvents=0;fillColor=none;points=[[0,0.5],[1,0.5]];portConstraint=eastwest;top=0;left=0;right=0;bottom=1;fontSize=16;" vertex="1" parent="2nq4a87pyCxHnOQXuyUR-266">
          <mxGeometry y="30" width="250" height="30" as="geometry" />
        </mxCell>
        <mxCell id="2nq4a87pyCxHnOQXuyUR-268" value="PK" style="shape=partialRectangle;overflow=hidden;connectable=0;fillColor=none;top=0;left=0;bottom=0;right=0;fontStyle=1;fontSize=16;" vertex="1" parent="2nq4a87pyCxHnOQXuyUR-267">
          <mxGeometry width="30" height="30" as="geometry">
            <mxRectangle width="30" height="30" as="alternateBounds" />
          </mxGeometry>
        </mxCell>
        <mxCell id="2nq4a87pyCxHnOQXuyUR-269" value="holidays_id" style="shape=partialRectangle;overflow=hidden;connectable=0;fillColor=none;top=0;left=0;bottom=0;right=0;align=left;spacingLeft=6;fontStyle=5;fontSize=16;" vertex="1" parent="2nq4a87pyCxHnOQXuyUR-267">
          <mxGeometry x="30" width="220" height="30" as="geometry">
            <mxRectangle width="220" height="30" as="alternateBounds" />
          </mxGeometry>
        </mxCell>
        <mxCell id="2nq4a87pyCxHnOQXuyUR-270" value="" style="shape=partialRectangle;collapsible=0;dropTarget=0;pointerEvents=0;fillColor=none;points=[[0,0.5],[1,0.5]];portConstraint=eastwest;top=0;left=0;right=0;bottom=0;fontSize=16;" vertex="1" parent="2nq4a87pyCxHnOQXuyUR-266">
          <mxGeometry y="60" width="250" height="26" as="geometry" />
        </mxCell>
        <mxCell id="2nq4a87pyCxHnOQXuyUR-271" value="" style="shape=partialRectangle;overflow=hidden;connectable=0;fillColor=none;top=0;left=0;bottom=0;right=0;fontSize=16;" vertex="1" parent="2nq4a87pyCxHnOQXuyUR-270">
          <mxGeometry width="30" height="26" as="geometry">
            <mxRectangle width="30" height="26" as="alternateBounds" />
          </mxGeometry>
        </mxCell>
        <mxCell id="2nq4a87pyCxHnOQXuyUR-272" value="start" style="shape=partialRectangle;overflow=hidden;connectable=0;fillColor=none;top=0;left=0;bottom=0;right=0;align=left;spacingLeft=6;fontSize=16;" vertex="1" parent="2nq4a87pyCxHnOQXuyUR-270">
          <mxGeometry x="30" width="220" height="26" as="geometry">
            <mxRectangle width="220" height="26" as="alternateBounds" />
          </mxGeometry>
        </mxCell>
        <mxCell id="2nq4a87pyCxHnOQXuyUR-273" style="shape=partialRectangle;collapsible=0;dropTarget=0;pointerEvents=0;fillColor=none;points=[[0,0.5],[1,0.5]];portConstraint=eastwest;top=0;left=0;right=0;bottom=0;fontSize=16;" vertex="1" parent="2nq4a87pyCxHnOQXuyUR-266">
          <mxGeometry y="86" width="250" height="26" as="geometry" />
        </mxCell>
        <mxCell id="2nq4a87pyCxHnOQXuyUR-274" style="shape=partialRectangle;overflow=hidden;connectable=0;fillColor=none;top=0;left=0;bottom=0;right=0;fontSize=16;" vertex="1" parent="2nq4a87pyCxHnOQXuyUR-273">
          <mxGeometry width="30" height="26" as="geometry">
            <mxRectangle width="30" height="26" as="alternateBounds" />
          </mxGeometry>
        </mxCell>
        <mxCell id="2nq4a87pyCxHnOQXuyUR-275" value="end" style="shape=partialRectangle;overflow=hidden;connectable=0;fillColor=none;top=0;left=0;bottom=0;right=0;align=left;spacingLeft=6;fontSize=16;" vertex="1" parent="2nq4a87pyCxHnOQXuyUR-273">
          <mxGeometry x="30" width="220" height="26" as="geometry">
            <mxRectangle width="220" height="26" as="alternateBounds" />
          </mxGeometry>
        </mxCell>
        <mxCell id="2nq4a87pyCxHnOQXuyUR-276" style="shape=partialRectangle;collapsible=0;dropTarget=0;pointerEvents=0;fillColor=none;points=[[0,0.5],[1,0.5]];portConstraint=eastwest;top=0;left=0;right=0;bottom=0;fontSize=16;" vertex="1" parent="2nq4a87pyCxHnOQXuyUR-266">
          <mxGeometry y="112" width="250" height="26" as="geometry" />
        </mxCell>
        <mxCell id="2nq4a87pyCxHnOQXuyUR-277" style="shape=partialRectangle;overflow=hidden;connectable=0;fillColor=none;top=0;left=0;bottom=0;right=0;fontSize=16;" vertex="1" parent="2nq4a87pyCxHnOQXuyUR-276">
          <mxGeometry width="30" height="26" as="geometry">
            <mxRectangle width="30" height="26" as="alternateBounds" />
          </mxGeometry>
        </mxCell>
        <mxCell id="2nq4a87pyCxHnOQXuyUR-278" value="name" style="shape=partialRectangle;overflow=hidden;connectable=0;fillColor=none;top=0;left=0;bottom=0;right=0;align=left;spacingLeft=6;fontSize=16;" vertex="1" parent="2nq4a87pyCxHnOQXuyUR-276">
          <mxGeometry x="30" width="220" height="26" as="geometry">
            <mxRectangle width="220" height="26" as="alternateBounds" />
          </mxGeometry>
        </mxCell>
        <mxCell id="2nq4a87pyCxHnOQXuyUR-279" style="shape=partialRectangle;collapsible=0;dropTarget=0;pointerEvents=0;fillColor=none;points=[[0,0.5],[1,0.5]];portConstraint=eastwest;top=0;left=0;right=0;bottom=0;fontSize=16;" vertex="1" parent="2nq4a87pyCxHnOQXuyUR-266">
          <mxGeometry y="138" width="250" height="26" as="geometry" />
        </mxCell>
        <mxCell id="2nq4a87pyCxHnOQXuyUR-280" style="shape=partialRectangle;overflow=hidden;connectable=0;fillColor=none;top=0;left=0;bottom=0;right=0;fontSize=16;" vertex="1" parent="2nq4a87pyCxHnOQXuyUR-279">
          <mxGeometry width="30" height="26" as="geometry">
            <mxRectangle width="30" height="26" as="alternateBounds" />
          </mxGeometry>
        </mxCell>
        <mxCell id="2nq4a87pyCxHnOQXuyUR-281" value="is_day_off" style="shape=partialRectangle;overflow=hidden;connectable=0;fillColor=none;top=0;left=0;bottom=0;right=0;align=left;spacingLeft=6;fontSize=16;" vertex="1" parent="2nq4a87pyCxHnOQXuyUR-279">
          <mxGeometry x="30" width="220" height="26" as="geometry">
            <mxRectangle width="220" height="26" as="alternateBounds" />
          </mxGeometry>
        </mxCell>
        <mxCell id="2nq4a87pyCxHnOQXuyUR-285" value="Notification" style="shape=table;startSize=30;container=1;collapsible=1;childLayout=tableLayout;fixedRows=1;rowLines=0;fontStyle=1;align=center;resizeLast=1;fontSize=16;" vertex="1" parent="1">
          <mxGeometry x="891" y="1347.0000000000002" width="250" height="95.61057193462659" as="geometry" />
        </mxCell>
        <mxCell id="2nq4a87pyCxHnOQXuyUR-286" value="" style="shape=partialRectangle;collapsible=0;dropTarget=0;pointerEvents=0;fillColor=none;points=[[0,0.5],[1,0.5]];portConstraint=eastwest;top=0;left=0;right=0;bottom=1;fontSize=16;" vertex="1" parent="2nq4a87pyCxHnOQXuyUR-285">
          <mxGeometry y="30" width="250" height="30" as="geometry" />
        </mxCell>
        <mxCell id="2nq4a87pyCxHnOQXuyUR-287" value="PK" style="shape=partialRectangle;overflow=hidden;connectable=0;fillColor=none;top=0;left=0;bottom=0;right=0;fontStyle=1;fontSize=16;" vertex="1" parent="2nq4a87pyCxHnOQXuyUR-286">
          <mxGeometry width="30" height="30" as="geometry">
            <mxRectangle width="30" height="30" as="alternateBounds" />
          </mxGeometry>
        </mxCell>
        <mxCell id="2nq4a87pyCxHnOQXuyUR-288" value="notification_id" style="shape=partialRectangle;overflow=hidden;connectable=0;fillColor=none;top=0;left=0;bottom=0;right=0;align=left;spacingLeft=6;fontStyle=5;fontSize=16;" vertex="1" parent="2nq4a87pyCxHnOQXuyUR-286">
          <mxGeometry x="30" width="220" height="30" as="geometry">
            <mxRectangle width="220" height="30" as="alternateBounds" />
          </mxGeometry>
        </mxCell>
        <mxCell id="2nq4a87pyCxHnOQXuyUR-289" value="" style="shape=partialRectangle;collapsible=0;dropTarget=0;pointerEvents=0;fillColor=none;points=[[0,0.5],[1,0.5]];portConstraint=eastwest;top=0;left=0;right=0;bottom=0;fontSize=16;" vertex="1" parent="2nq4a87pyCxHnOQXuyUR-285">
          <mxGeometry y="60" width="250" height="26" as="geometry" />
        </mxCell>
        <mxCell id="2nq4a87pyCxHnOQXuyUR-290" value="" style="shape=partialRectangle;overflow=hidden;connectable=0;fillColor=none;top=0;left=0;bottom=0;right=0;fontSize=16;" vertex="1" parent="2nq4a87pyCxHnOQXuyUR-289">
          <mxGeometry width="30" height="26" as="geometry">
            <mxRectangle width="30" height="26" as="alternateBounds" />
          </mxGeometry>
        </mxCell>
        <mxCell id="2nq4a87pyCxHnOQXuyUR-291" value="text" style="shape=partialRectangle;overflow=hidden;connectable=0;fillColor=none;top=0;left=0;bottom=0;right=0;align=left;spacingLeft=6;fontSize=16;" vertex="1" parent="2nq4a87pyCxHnOQXuyUR-289">
          <mxGeometry x="30" width="220" height="26" as="geometry">
            <mxRectangle width="220" height="26" as="alternateBounds" />
          </mxGeometry>
        </mxCell>
        <mxCell id="2nq4a87pyCxHnOQXuyUR-295" value="Position" style="shape=table;startSize=30;container=1;collapsible=1;childLayout=tableLayout;fixedRows=1;rowLines=0;fontStyle=1;align=center;resizeLast=1;fontSize=16;" vertex="1" parent="1">
          <mxGeometry x="1207" y="1237" width="250" height="95.61057193462659" as="geometry" />
        </mxCell>
        <mxCell id="2nq4a87pyCxHnOQXuyUR-296" value="" style="shape=partialRectangle;collapsible=0;dropTarget=0;pointerEvents=0;fillColor=none;points=[[0,0.5],[1,0.5]];portConstraint=eastwest;top=0;left=0;right=0;bottom=1;fontSize=16;" vertex="1" parent="2nq4a87pyCxHnOQXuyUR-295">
          <mxGeometry y="30" width="250" height="30" as="geometry" />
        </mxCell>
        <mxCell id="2nq4a87pyCxHnOQXuyUR-297" value="PK" style="shape=partialRectangle;overflow=hidden;connectable=0;fillColor=none;top=0;left=0;bottom=0;right=0;fontStyle=1;fontSize=16;" vertex="1" parent="2nq4a87pyCxHnOQXuyUR-296">
          <mxGeometry width="30" height="30" as="geometry">
            <mxRectangle width="30" height="30" as="alternateBounds" />
          </mxGeometry>
        </mxCell>
        <mxCell id="2nq4a87pyCxHnOQXuyUR-298" value="position_id" style="shape=partialRectangle;overflow=hidden;connectable=0;fillColor=none;top=0;left=0;bottom=0;right=0;align=left;spacingLeft=6;fontStyle=5;fontSize=16;" vertex="1" parent="2nq4a87pyCxHnOQXuyUR-296">
          <mxGeometry x="30" width="220" height="30" as="geometry">
            <mxRectangle width="220" height="30" as="alternateBounds" />
          </mxGeometry>
        </mxCell>
        <mxCell id="2nq4a87pyCxHnOQXuyUR-299" value="" style="shape=partialRectangle;collapsible=0;dropTarget=0;pointerEvents=0;fillColor=none;points=[[0,0.5],[1,0.5]];portConstraint=eastwest;top=0;left=0;right=0;bottom=0;fontSize=16;" vertex="1" parent="2nq4a87pyCxHnOQXuyUR-295">
          <mxGeometry y="60" width="250" height="26" as="geometry" />
        </mxCell>
        <mxCell id="2nq4a87pyCxHnOQXuyUR-300" value="" style="shape=partialRectangle;overflow=hidden;connectable=0;fillColor=none;top=0;left=0;bottom=0;right=0;fontSize=16;" vertex="1" parent="2nq4a87pyCxHnOQXuyUR-299">
          <mxGeometry width="30" height="26" as="geometry">
            <mxRectangle width="30" height="26" as="alternateBounds" />
          </mxGeometry>
        </mxCell>
        <mxCell id="2nq4a87pyCxHnOQXuyUR-301" value="name" style="shape=partialRectangle;overflow=hidden;connectable=0;fillColor=none;top=0;left=0;bottom=0;right=0;align=left;spacingLeft=6;fontSize=16;" vertex="1" parent="2nq4a87pyCxHnOQXuyUR-299">
          <mxGeometry x="30" width="220" height="26" as="geometry">
            <mxRectangle width="220" height="26" as="alternateBounds" />
          </mxGeometry>
        </mxCell>
        <mxCell id="2nq4a87pyCxHnOQXuyUR-302" value="" style="edgeStyle=orthogonalEdgeStyle;endArrow=ERzeroToMany;startArrow=ERzeroToOne;endFill=1;startFill=0;exitX=1;exitY=0.5;exitDx=0;exitDy=0;rounded=0;strokeWidth=1;sourcePerimeterSpacing=6;startSize=8;endSize=8;entryX=0;entryY=0.5;entryDx=0;entryDy=0;" edge="1" parent="1" source="2nq4a87pyCxHnOQXuyUR-138" target="2nq4a87pyCxHnOQXuyUR-33">
          <mxGeometry width="100" height="100" relative="1" as="geometry">
            <mxPoint x="1069" y="488" as="sourcePoint" />
            <mxPoint x="1183" y="456" as="targetPoint" />
          </mxGeometry>
        </mxCell>
        <mxCell id="2nq4a87pyCxHnOQXuyUR-303" value="" style="edgeStyle=orthogonalEdgeStyle;endArrow=ERzeroToMany;startArrow=ERmandOne;endFill=1;startFill=0;exitX=1;exitY=0.5;exitDx=0;exitDy=0;entryX=1;entryY=0.5;entryDx=0;entryDy=0;rounded=0;strokeWidth=1;sourcePerimeterSpacing=6;endSize=8;startSize=8;" edge="1" parent="1" source="2nq4a87pyCxHnOQXuyUR-104" target="2nq4a87pyCxHnOQXuyUR-141">
          <mxGeometry width="100" height="100" relative="1" as="geometry">
            <mxPoint x="1136" y="772" as="sourcePoint" />
            <mxPoint x="1091" y="707" as="targetPoint" />
          </mxGeometry>
        </mxCell>
        <mxCell id="2nq4a87pyCxHnOQXuyUR-304" value="" style="edgeStyle=orthogonalEdgeStyle;endArrow=ERzeroToMany;startArrow=ERzeroToOne;endFill=1;startFill=0;exitX=0;exitY=0.5;exitDx=0;exitDy=0;entryX=1;entryY=0.5;entryDx=0;entryDy=0;rounded=0;strokeWidth=1;sourcePerimeterSpacing=6;endSize=8;startSize=8;" edge="1" parent="1" source="2nq4a87pyCxHnOQXuyUR-148" target="2nq4a87pyCxHnOQXuyUR-60">
          <mxGeometry width="100" height="100" relative="1" as="geometry">
            <mxPoint x="1541" y="671" as="sourcePoint" />
            <mxPoint x="1459" y="671" as="targetPoint" />
            <Array as="points">
              <mxPoint x="1459" y="571" />
              <mxPoint x="1459" y="692" />
            </Array>
          </mxGeometry>
        </mxCell>
        <mxCell id="2nq4a87pyCxHnOQXuyUR-305" value="" style="edgeStyle=orthogonalEdgeStyle;endArrow=ERzeroToMany;startArrow=ERmandOne;endFill=1;startFill=0;exitX=0;exitY=0.5;exitDx=0;exitDy=0;entryX=1;entryY=0.5;entryDx=0;entryDy=0;rounded=0;strokeWidth=1;sourcePerimeterSpacing=6;endSize=8;startSize=8;" edge="1" parent="1" source="2nq4a87pyCxHnOQXuyUR-104" target="2nq4a87pyCxHnOQXuyUR-158">
          <mxGeometry width="100" height="100" relative="1" as="geometry">
            <mxPoint x="639" y="1178" as="sourcePoint" />
            <mxPoint x="366" y="1265" as="targetPoint" />
            <Array as="points">
              <mxPoint x="290" y="1014" />
              <mxPoint x="290" y="1419" />
            </Array>
          </mxGeometry>
        </mxCell>
        <mxCell id="2nq4a87pyCxHnOQXuyUR-306" value="" style="edgeStyle=orthogonalEdgeStyle;endArrow=ERzeroToMany;startArrow=ERoneToMany;endFill=1;startFill=0;exitX=0;exitY=0.5;exitDx=0;exitDy=0;entryX=0;entryY=0;entryDx=0;entryDy=0;rounded=0;strokeWidth=1;sourcePerimeterSpacing=6;endSize=8;startSize=8;" edge="1" parent="1" source="2nq4a87pyCxHnOQXuyUR-116" target="2nq4a87pyCxHnOQXuyUR-173">
          <mxGeometry width="100" height="100" relative="1" as="geometry">
            <mxPoint x="810" y="1404" as="sourcePoint" />
            <mxPoint x="659" y="1473" as="targetPoint" />
            <Array as="points">
              <mxPoint x="618" y="1211" />
            </Array>
          </mxGeometry>
        </mxCell>
        <mxCell id="2nq4a87pyCxHnOQXuyUR-307" value="" style="edgeStyle=orthogonalEdgeStyle;endArrow=ERmandOne;startArrow=ERoneToMany;endFill=0;startFill=0;rounded=0;strokeWidth=1;sourcePerimeterSpacing=6;endSize=8;startSize=8;exitX=0;exitY=0.5;exitDx=0;exitDy=0;entryX=1;entryY=0.5;entryDx=0;entryDy=0;" edge="1" parent="1" source="2nq4a87pyCxHnOQXuyUR-134" target="2nq4a87pyCxHnOQXuyUR-190">
          <mxGeometry width="100" height="100" relative="1" as="geometry">
            <mxPoint x="1151" y="1314" as="sourcePoint" />
            <mxPoint x="1047" y="1376" as="targetPoint" />
            <Array as="points">
              <mxPoint x="588" y="1066" />
              <mxPoint x="588" y="1386" />
            </Array>
          </mxGeometry>
        </mxCell>
        <mxCell id="2nq4a87pyCxHnOQXuyUR-308" value="" style="edgeStyle=orthogonalEdgeStyle;endArrow=ERmandOne;startArrow=ERoneToMany;endFill=0;startFill=0;rounded=0;strokeWidth=1;sourcePerimeterSpacing=6;endSize=8;startSize=8;entryX=0;entryY=0.5;entryDx=0;entryDy=0;exitX=1;exitY=0.5;exitDx=0;exitDy=0;" edge="1" parent="1" source="2nq4a87pyCxHnOQXuyUR-131" target="2nq4a87pyCxHnOQXuyUR-248">
          <mxGeometry width="100" height="100" relative="1" as="geometry">
            <mxPoint x="987" y="1099" as="sourcePoint" />
            <mxPoint x="1088" y="1315" as="targetPoint" />
            <Array as="points">
              <mxPoint x="979" y="1091" />
              <mxPoint x="979" y="1305" />
              <mxPoint x="1175" y="1305" />
              <mxPoint x="1175" y="1399" />
              <mxPoint x="1192" y="1399" />
            </Array>
          </mxGeometry>
        </mxCell>
        <mxCell id="2nq4a87pyCxHnOQXuyUR-309" value="" style="edgeStyle=orthogonalEdgeStyle;endArrow=ERmandOne;startArrow=ERzeroToMany;endFill=0;startFill=0;exitX=1;exitY=0.5;exitDx=0;exitDy=0;entryX=0;entryY=0.5;entryDx=0;entryDy=0;rounded=0;strokeWidth=1;sourcePerimeterSpacing=6;endSize=8;startSize=8;" edge="1" parent="1" target="2nq4a87pyCxHnOQXuyUR-296">
          <mxGeometry width="100" height="100" relative="1" as="geometry">
            <mxPoint x="941" y="1039.9999999999998" as="sourcePoint" />
            <mxPoint x="1239" y="1385" as="targetPoint" />
            <Array as="points">
              <mxPoint x="941" y="1058" />
              <mxPoint x="1194" y="1058" />
              <mxPoint x="1194" y="1282" />
            </Array>
          </mxGeometry>
        </mxCell>
        <mxCell id="2nq4a87pyCxHnOQXuyUR-310" value="" style="edgeStyle=orthogonalEdgeStyle;endArrow=ERoneToMany;startArrow=ERzeroToMany;endFill=0;startFill=0;exitX=0.25;exitY=0;exitDx=0;exitDy=0;entryX=0.75;entryY=1;entryDx=0;entryDy=0;rounded=0;strokeWidth=1;sourcePerimeterSpacing=6;endSize=8;startSize=8;" edge="1" parent="1" source="2nq4a87pyCxHnOQXuyUR-285" target="2nq4a87pyCxHnOQXuyUR-103">
          <mxGeometry width="100" height="100" relative="1" as="geometry">
            <mxPoint x="1163" y="1713.96" as="sourcePoint" />
            <mxPoint x="992" y="1659.96" as="targetPoint" />
          </mxGeometry>
        </mxCell>
        <mxCell id="2nq4a87pyCxHnOQXuyUR-311" value="" style="edgeStyle=orthogonalEdgeStyle;endArrow=ERzeroToMany;startArrow=ERmandOne;endFill=1;startFill=0;exitX=1;exitY=0.5;exitDx=0;exitDy=0;entryX=0;entryY=0.5;entryDx=0;entryDy=0;rounded=0;strokeWidth=1;sourcePerimeterSpacing=6;endSize=8;startSize=8;" edge="1" parent="1" source="2nq4a87pyCxHnOQXuyUR-104" target="2nq4a87pyCxHnOQXuyUR-200">
          <mxGeometry width="100" height="100" relative="1" as="geometry">
            <mxPoint x="1157" y="1002" as="sourcePoint" />
            <mxPoint x="1287" y="987" as="targetPoint" />
            <Array as="points">
              <mxPoint x="1319" y="1014" />
              <mxPoint x="1319" y="1048" />
            </Array>
          </mxGeometry>
        </mxCell>
        <mxCell id="2nq4a87pyCxHnOQXuyUR-312" value="" style="edgeStyle=orthogonalEdgeStyle;endArrow=ERmandOne;startArrow=ERoneToMany;endFill=0;startFill=0;rounded=0;strokeWidth=1;sourcePerimeterSpacing=6;endSize=8;startSize=8;exitX=0;exitY=0.5;exitDx=0;exitDy=0;entryX=1;entryY=0.5;entryDx=0;entryDy=0;" edge="1" parent="1" source="2nq4a87pyCxHnOQXuyUR-219" target="2nq4a87pyCxHnOQXuyUR-197">
          <mxGeometry width="100" height="100" relative="1" as="geometry">
            <mxPoint x="1657" y="1258" as="sourcePoint" />
            <mxPoint x="1603" y="1258" as="targetPoint" />
            <Array as="points">
              <mxPoint x="1657" y="1017" />
            </Array>
          </mxGeometry>
        </mxCell>
        <mxCell id="2nq4a87pyCxHnOQXuyUR-313" value="" style="edgeStyle=orthogonalEdgeStyle;endArrow=ERmandOne;startArrow=ERzeroToMany;endFill=0;startFill=0;exitX=1;exitY=0.5;exitDx=0;exitDy=0;entryX=0;entryY=0.5;entryDx=0;entryDy=0;rounded=0;strokeWidth=1;sourcePerimeterSpacing=6;endSize=8;startSize=8;" edge="1" parent="1" source="2nq4a87pyCxHnOQXuyUR-225" target="2nq4a87pyCxHnOQXuyUR-238">
          <mxGeometry width="100" height="100" relative="1" as="geometry">
            <mxPoint x="1953" y="1109" as="sourcePoint" />
            <mxPoint x="2007" y="1109" as="targetPoint" />
            <Array as="points">
              <mxPoint x="1934" y="1070" />
              <mxPoint x="1934" y="984" />
            </Array>
          </mxGeometry>
        </mxCell>
        <mxCell id="2nq4a87pyCxHnOQXuyUR-314" value="" style="edgeStyle=orthogonalEdgeStyle;endArrow=ERzeroToOne;startArrow=ERzeroToMany;endFill=0;startFill=0;exitX=0;exitY=0.5;exitDx=0;exitDy=0;entryX=1;entryY=0.5;entryDx=0;entryDy=0;rounded=0;strokeWidth=1;sourcePerimeterSpacing=6;endSize=8;startSize=8;" edge="1" parent="1" source="2nq4a87pyCxHnOQXuyUR-222" target="2nq4a87pyCxHnOQXuyUR-48">
          <mxGeometry width="100" height="100" relative="1" as="geometry">
            <mxPoint x="1801" y="842" as="sourcePoint" />
            <mxPoint x="1506" y="790" as="targetPoint" />
            <Array as="points">
              <mxPoint x="1644" y="1044" />
              <mxPoint x="1644" y="813" />
            </Array>
          </mxGeometry>
        </mxCell>
        <mxCell id="2nq4a87pyCxHnOQXuyUR-315" value="" style="edgeStyle=orthogonalEdgeStyle;endArrow=ERzeroToMany;startArrow=ERzeroToOne;endFill=1;startFill=0;exitX=0.75;exitY=0;exitDx=0;exitDy=0;entryX=0;entryY=0.5;entryDx=0;entryDy=0;rounded=0;strokeWidth=1;sourcePerimeterSpacing=6;endSize=8;startSize=8;" edge="1" parent="1" source="2nq4a87pyCxHnOQXuyUR-103" target="2nq4a87pyCxHnOQXuyUR-36">
          <mxGeometry width="100" height="100" relative="1" as="geometry">
            <mxPoint x="1077" y="930" as="sourcePoint" />
            <mxPoint x="1116" y="848" as="targetPoint" />
            <Array as="points">
              <mxPoint x="878" y="800" />
              <mxPoint x="1122" y="800" />
              <mxPoint x="1122" y="631" />
            </Array>
          </mxGeometry>
        </mxCell>
      </root>
    </mxGraphModel>
  </diagram>
</mxfile>
